<?xml version="1.0" encoding="utf-8" ?>
<svg baseProfile="full" height="1000px" version="1.1" width="1000px" xmlns="http://www.w3.org/2000/svg" xmlns:ev="http://www.w3.org/2001/xml-events" xmlns:xlink="http://www.w3.org/1999/xlink"><defs /><polygon fill="#ff0000" points="220,100 245,85 270,100 270,130 245,145 220,130" stroke="black" stroke-width="2" /><text fill="white" x="240" y="115">b</text><polygon fill="#333333" points="270,100 295,85 320,100 320,130 295,145 270,130" stroke="black" stroke-width="2" /><text fill="white" x="290" y="115">a</text><polygon fill="#ff0000" points="320,100 345,85 370,100 370,130 345,145 320,130" stroke="black" stroke-width="2" /><text fill="white" x="340" y="115">b</text><polygon fill="#333333" points="370,100 395,85 420,100 420,130 395,145 370,130" stroke="black" stroke-width="2" /><text fill="white" x="390" y="115">a</text><polygon fill="#333333" points="420,100 445,85 470,100 470,130 445,145 420,130" stroke="black" stroke-width="2" /><text fill="white" x="440" y="115">a</text><polygon fill="#333333" points="470,100 495,85 520,100 520,130 495,145 470,130" stroke="black" stroke-width="2" /><text fill="white" x="490" y="115">a</text><polygon fill="#ff0000" points="520,100 545,85 570,100 570,130 545,145 520,130" stroke="black" stroke-width="2" /><text fill="white" x="540" y="115">b</text><polygon fill="#333333" points="570,100 595,85 620,100 620,130 595,145 570,130" stroke="black" stroke-width="2" /><text fill="white" x="590" y="115">a</text><polygon fill="#ff0000" points="620,100 645,85 670,100 670,130 645,145 620,130" stroke="black" stroke-width="2" /><text fill="white" x="640" y="115">b</text><polygon fill="#333333" points="195,145 220,130 245,145 245,175 220,190 195,175" stroke="black" stroke-width="2" /><text fill="white" x="215" y="160">a</text><polygon fill="#333333" points="245,145 270,130 295,145 295,175 270,190 245,175" stroke="black" stroke-width="2" /><text fill="white" x="265" y="160">a</text><polygon fill="white" points="295,145 320,130 345,145 345,175 320,190 295,175" stroke="black" stroke-width="2" /><text fill="white" x="315" y="160" /><polygon fill="#333333" points="345,145 370,130 395,145 395,175 370,190 345,175" stroke="black" stroke-width="2" /><text fill="white" x="365" y="160">a</text><polygon fill="#ff0000" points="395,145 420,130 445,145 445,175 420,190 395,175" stroke="black" stroke-width="2" /><text fill="white" x="415" y="160">b</text><polygon fill="white" points="445,145 470,130 495,145 495,175 470,190 445,175" stroke="black" stroke-width="2" /><text fill="white" x="465" y="160" /><polygon fill="white" points="495,145 520,130 545,145 545,175 520,190 495,175" stroke="black" stroke-width="2" /><text fill="white" x="515" y="160" /><polygon fill="#333333" points="545,145 570,130 595,145 595,175 570,190 545,175" stroke="black" stroke-width="2" /><text fill="white" x="565" y="160">a</text><polygon fill="white" points="595,145 620,130 645,145 645,175 620,190 595,175" stroke="black" stroke-width="2" /><text fill="white" x="615" y="160" /><polygon fill="white" points="645,145 670,130 695,145 695,175 670,190 645,175" stroke="black" stroke-width="2" /><text fill="white" x="665" y="160" /><polygon fill="#ff0000" points="170,190 195,175 220,190 220,220 195,235 170,220" stroke="black" stroke-width="2" /><text fill="white" x="190" y="205">b</text><polygon fill="white" points="220,190 245,175 270,190 270,220 245,235 220,220" stroke="black" stroke-width="2" /><text fill="white" x="240" y="205" /><polygon fill="#333333" points="270,190 295,175 320,190 320,220 295,235 270,220" stroke="black" stroke-width="2" /><text fill="white" x="290" y="205">a</text><polygon fill="#333333" points="320,190 345,175 370,190 370,220 345,235 320,220" stroke="black" stroke-width="2" /><text fill="white" x="340" y="205">a</text><polygon fill="white" points="370,190 395,175 420,190 420,220 395,235 370,220" stroke="black" stroke-width="2" /><text fill="white" x="390" y="205" /><polygon fill="#333333" points="420,190 445,175 470,190 470,220 445,235 420,220" stroke="black" stroke-width="2" /><text fill="white" x="440" y="205">a</text><polygon fill="#333333" points="470,190 495,175 520,190 520,220 495,235 470,220" stroke="black" stroke-width="2" /><text fill="white" x="490" y="205">a</text><polygon fill="#333333" points="520,190 545,175 570,190 570,220 545,235 520,220" stroke="black" stroke-width="2" /><text fill="white" x="540" y="205">a</text><polygon fill="#ff0000" points="570,190 595,175 620,190 620,220 595,235 570,220" stroke="black" stroke-width="2" /><text fill="white" x="590" y="205">b</text><polygon fill="#333333" points="620,190 645,175 670,190 670,220 645,235 620,220" stroke="black" stroke-width="2" /><text fill="white" x="640" y="205">a</text><polygon fill="#ff0000" points="670,190 695,175 720,190 720,220 695,235 670,220" stroke="black" stroke-width="2" /><text fill="white" x="690" y="205">b</text><polygon fill="#333333" points="145,235 170,220 195,235 195,265 170,280 145,265" stroke="black" stroke-width="2" /><text fill="white" x="165" y="250">a</text><polygon fill="#333333" points="195,235 220,220 245,235 245,265 220,280 195,265" stroke="black" stroke-width="2" /><text fill="white" x="215" y="250">a</text><polygon fill="#333333" points="245,235 270,220 295,235 295,265 270,280 245,265" stroke="black" stroke-width="2" /><text fill="white" x="265" y="250">a</text><polygon fill="#ff0000" points="295,235 320,220 345,235 345,265 320,280 295,265" stroke="black" stroke-width="2" /><text fill="white" x="315" y="250">b</text><polygon fill="#ff0000" points="345,235 370,220 395,235 395,265 370,280 345,265" stroke="black" stroke-width="2" /><text fill="white" x="365" y="250">b</text><polygon fill="#333333" points="395,235 420,220 445,235 445,265 420,280 395,265" stroke="black" stroke-width="2" /><text fill="white" x="415" y="250">a</text><polygon fill="#ff0000" points="445,235 470,220 495,235 495,265 470,280 445,265" stroke="black" stroke-width="2" /><text fill="white" x="465" y="250">b</text><polygon fill="white" points="495,235 520,220 545,235 545,265 520,280 495,265" stroke="black" stroke-width="2" /><text fill="white" x="515" y="250" /><polygon fill="#333333" points="545,235 570,220 595,235 595,265 570,280 545,265" stroke="black" stroke-width="2" /><text fill="white" x="565" y="250">a</text><polygon fill="#333333" points="595,235 620,220 645,235 645,265 620,280 595,265" stroke="black" stroke-width="2" /><text fill="white" x="615" y="250">a</text><polygon fill="#333333" points="645,235 670,220 695,235 695,265 670,280 645,265" stroke="black" stroke-width="2" /><text fill="white" x="665" y="250">a</text><polygon fill="white" points="695,235 720,220 745,235 745,265 720,280 695,265" stroke="black" stroke-width="2" /><text fill="white" x="715" y="250" /><polygon fill="#333333" points="120,280 145,265 170,280 170,310 145,325 120,310" stroke="black" stroke-width="2" /><text fill="white" x="140" y="295">a</text><polygon fill="#ff0000" points="170,280 195,265 220,280 220,310 195,325 170,310" stroke="black" stroke-width="2" /><text fill="white" x="190" y="295">b</text><polygon fill="white" points="220,280 245,265 270,280 270,310 245,325 220,310" stroke="black" stroke-width="2" /><text fill="white" x="240" y="295" /><polygon fill="#ff0000" points="270,280 295,265 320,280 320,310 295,325 270,310" stroke="black" stroke-width="2" /><text fill="white" x="290" y="295">b</text><polygon fill="#333333" points="320,280 345,265 370,280 370,310 345,325 320,310" stroke="black" stroke-width="2" /><text fill="white" x="340" y="295">a</text><polygon fill="#ff0000" points="370,280 395,265 420,280 420,310 395,325 370,310" stroke="black" stroke-width="2" /><text fill="white" x="390" y="295">b</text><polygon fill="white" points="420,280 445,265 470,280 470,310 445,325 420,310" stroke="black" stroke-width="2" /><text fill="white" x="440" y="295" /><polygon fill="white" points="470,280 495,265 520,280 520,310 495,325 470,310" stroke="black" stroke-width="2" /><text fill="white" x="490" y="295" /><polygon fill="#333333" points="520,280 545,265 570,280 570,310 545,325 520,310" stroke="black" stroke-width="2" /><text fill="white" x="540" y="295">a</text><polygon fill="#333333" points="570,280 595,265 620,280 620,310 595,325 570,310" stroke="black" stroke-width="2" /><text fill="white" x="590" y="295">a</text><polygon fill="#ff0000" points="620,280 645,265 670,280 670,310 645,325 620,310" stroke="black" stroke-width="2" /><text fill="white" x="640" y="295">b</text><polygon fill="#333333" points="670,280 695,265 720,280 720,310 695,325 670,310" stroke="black" stroke-width="2" /><text fill="white" x="690" y="295">a</text><polygon fill="#ff0000" points="720,280 745,265 770,280 770,310 745,325 720,310" stroke="black" stroke-width="2" /><text fill="white" x="740" y="295">b</text><polygon fill="#333333" points="95,325 120,310 145,325 145,355 120,370 95,355" stroke="black" stroke-width="2" /><text fill="white" x="115" y="340">a</text><polygon fill="white" points="145,325 170,310 195,325 195,355 170,370 145,355" stroke="black" stroke-width="2" /><text fill="white" x="165" y="340" /><polygon fill="#333333" points="195,325 220,310 245,325 245,355 220,370 195,355" stroke="black" stroke-width="2" /><text fill="white" x="215" y="340">a</text><polygon fill="#333333" points="245,325 270,310 295,325 295,355 270,370 245,355" stroke="black" stroke-width="2" /><text fill="white" x="265" y="340">a</text><polygon fill="#ff0000" points="295,325 320,310 345,325 345,355 320,370 295,355" stroke="black" stroke-width="2" /><text fill="white" x="315" y="340">b</text><polygon fill="#ff0000" points="345,325 370,310 395,325 395,355 370,370 345,355" stroke="black" stroke-width="2" /><text fill="white" x="365" y="340">b</text><polygon fill="#333333" points="395,325 420,310 445,325 445,355 420,370 395,355" stroke="black" stroke-width="2" /><text fill="white" x="415" y="340">a</text><polygon fill="#333333" points="445,325 470,310 495,325 495,355 470,370 445,355" stroke="black" stroke-width="2" /><text fill="white" x="465" y="340">a</text><polygon fill="#ff0000" points="495,325 520,310 545,325 545,355 520,370 495,355" stroke="black" stroke-width="2" /><text fill="white" x="515" y="340">b</text><polygon fill="white" points="545,325 570,310 595,325 595,355 570,370 545,355" stroke="black" stroke-width="2" /><text fill="white" x="565" y="340" /><polygon fill="#333333" points="595,325 620,310 645,325 645,355 620,370 595,355" stroke="black" stroke-width="2" /><text fill="white" x="615" y="340">a</text><polygon fill="white" points="645,325 670,310 695,325 695,355 670,370 645,355" stroke="black" stroke-width="2" /><text fill="white" x="665" y="340" /><polygon fill="#333333" points="695,325 720,310 745,325 745,355 720,370 695,355" stroke="black" stroke-width="2" /><text fill="white" x="715" y="340">a</text><polygon fill="white" points="745,325 770,310 795,325 795,355 770,370 745,355" stroke="black" stroke-width="2" /><text fill="white" x="765" y="340" /><polygon fill="#ff0000" points="70,370 95,355 120,370 120,400 95,415 70,400" stroke="black" stroke-width="2" /><text fill="white" x="90" y="385">b</text><polygon fill="white" points="120,370 145,355 170,370 170,400 145,415 120,400" stroke="black" stroke-width="2" /><text fill="white" x="140" y="385" /><polygon fill="#333333" points="170,370 195,355 220,370 220,400 195,415 170,400" stroke="black" stroke-width="2" /><text fill="white" x="190" y="385">a</text><polygon fill="#ff0000" points="220,370 245,355 270,370 270,400 245,415 220,400" stroke="black" stroke-width="2" /><text fill="white" x="240" y="385">b</text><polygon fill="white" points="270,370 295,355 320,370 320,400 295,415 270,400" stroke="black" stroke-width="2" /><text fill="white" x="290" y="385" /><polygon fill="#333333" points="320,370 345,355 370,370 370,400 345,415 320,400" stroke="black" stroke-width="2" /><text fill="white" x="340" y="385">a</text><polygon fill="#ff0000" points="370,370 395,355 420,370 420,400 395,415 370,400" stroke="black" stroke-width="2" /><text fill="white" x="390" y="385">b</text><polygon fill="white" points="420,370 445,355 470,370 470,400 445,415 420,400" stroke="black" stroke-width="2" /><text fill="white" x="440" y="385" /><polygon fill="#333333" points="470,370 495,355 520,370 520,400 495,415 470,400" stroke="black" stroke-width="2" /><text fill="white" x="490" y="385">a</text><polygon fill="#333333" points="520,370 545,355 570,370 570,400 545,415 520,400" stroke="black" stroke-width="2" /><text fill="white" x="540" y="385">a</text><polygon fill="#333333" points="570,370 595,355 620,370 620,400 595,415 570,400" stroke="black" stroke-width="2" /><text fill="white" x="590" y="385">a</text><polygon fill="white" points="620,370 645,355 670,370 670,400 645,415 620,400" stroke="black" stroke-width="2" /><text fill="white" x="640" y="385" /><polygon fill="white" points="670,370 695,355 720,370 720,400 695,415 670,400" stroke="black" stroke-width="2" /><text fill="white" x="690" y="385" /><polygon fill="white" points="720,370 745,355 770,370 770,400 745,415 720,400" stroke="black" stroke-width="2" /><text fill="white" x="740" y="385" /><polygon fill="#ff0000" points="770,370 795,355 820,370 820,400 795,415 770,400" stroke="black" stroke-width="2" /><text fill="white" x="790" y="385">b</text><polygon fill="#333333" points="45,415 70,400 95,415 95,445 70,460 45,445" stroke="black" stroke-width="2" /><text fill="white" x="65" y="430">a</text><polygon fill="#333333" points="95,415 120,400 145,415 145,445 120,460 95,445" stroke="black" stroke-width="2" /><text fill="white" x="115" y="430">a</text><polygon fill="#333333" points="145,415 170,400 195,415 195,445 170,460 145,445" stroke="black" stroke-width="2" /><text fill="white" x="165" y="430">a</text><polygon fill="white" points="195,415 220,400 245,415 245,445 220,460 195,445" stroke="black" stroke-width="2" /><text fill="white" x="215" y="430" /><polygon fill="white" points="245,415 270,400 295,415 295,445 270,460 245,445" stroke="black" stroke-width="2" /><text fill="white" x="265" y="430" /><polygon fill="#333333" points="295,415 320,400 345,415 345,445 320,460 295,445" stroke="black" stroke-width="2" /><text fill="white" x="315" y="430">a</text><polygon fill="white" points="345,415 370,400 395,415 395,445 370,460 345,445" stroke="black" stroke-width="2" /><text fill="white" x="365" y="430" /><polygon fill="#ff0000" points="395,415 420,400 445,415 445,445 420,460 395,445" stroke="black" stroke-width="2" /><text fill="white" x="415" y="430">b</text><polygon fill="#333333" points="445,415 470,400 495,415 495,445 470,460 445,445" stroke="black" stroke-width="2" /><text fill="white" x="465" y="430">a</text><polygon fill="#333333" points="495,415 520,400 545,415 545,445 520,460 495,445" stroke="black" stroke-width="2" /><text fill="white" x="515" y="430">a</text><polygon fill="#ff0000" points="545,415 570,400 595,415 595,445 570,460 545,445" stroke="black" stroke-width="2" /><text fill="white" x="565" y="430">b</text><polygon fill="white" points="595,415 620,400 645,415 645,445 620,460 595,445" stroke="black" stroke-width="2" /><text fill="white" x="615" y="430" /><polygon fill="#333333" points="645,415 670,400 695,415 695,445 670,460 645,445" stroke="black" stroke-width="2" /><text fill="white" x="665" y="430">a</text><polygon fill="white" points="695,415 720,400 745,415 745,445 720,460 695,445" stroke="black" stroke-width="2" /><text fill="white" x="715" y="430" /><polygon fill="#333333" points="745,415 770,400 795,415 795,445 770,460 745,445" stroke="black" stroke-width="2" /><text fill="white" x="765" y="430">a</text><polygon fill="white" points="795,415 820,400 845,415 845,445 820,460 795,445" stroke="black" stroke-width="2" /><text fill="white" x="815" y="430" /><polygon fill="#ff0000" points="20,460 45,445 70,460 70,490 45,505 20,490" stroke="black" stroke-width="2" /><text fill="white" x="40" y="475">b</text><polygon fill="white" points="70,460 95,445 120,460 120,490 95,505 70,490" stroke="black" stroke-width="2" /><text fill="white" x="90" y="475" /><polygon fill="#ff0000" points="120,460 145,445 170,460 170,490 145,505 120,490" stroke="black" stroke-width="2" /><text fill="white" x="140" y="475">b</text><polygon fill="#333333" points="170,460 195,445 220,460 220,490 195,505 170,490" stroke="black" stroke-width="2" /><text fill="white" x="190" y="475">a</text><polygon fill="#333333" points="220,460 245,445 270,460 270,490 245,505 220,490" stroke="black" stroke-width="2" /><text fill="white" x="240" y="475">a</text><polygon fill="#ff0000" points="270,460 295,445 320,460 320,490 295,505 270,490" stroke="black" stroke-width="2" /><text fill="white" x="290" y="475">b</text><polygon fill="#333333" points="320,460 345,445 370,460 370,490 345,505 320,490" stroke="black" stroke-width="2" /><text fill="white" x="340" y="475">a</text><polygon fill="#333333" points="370,460 395,445 420,460 420,490 395,505 370,490" stroke="black" stroke-width="2" /><text fill="white" x="390" y="475">a</text><polygon fill="#333333" points="420,460 445,445 470,460 470,490 445,505 420,490" stroke="black" stroke-width="2" /><text fill="white" x="440" y="475">a</text><polygon fill="white" points="470,460 495,445 520,460 520,490 495,505 470,490" stroke="black" stroke-width="2" /><text fill="white" x="490" y="475" /><polygon fill="white" points="520,460 545,445 570,460 570,490 545,505 520,490" stroke="black" stroke-width="2" /><text fill="white" x="540" y="475" /><polygon fill="#333333" points="570,460 595,445 620,460 620,490 595,505 570,490" stroke="black" stroke-width="2" /><text fill="white" x="590" y="475">a</text><polygon fill="white" points="620,460 645,445 670,460 670,490 645,505 620,490" stroke="black" stroke-width="2" /><text fill="white" x="640" y="475" /><polygon fill="white" points="670,460 695,445 720,460 720,490 695,505 670,490" stroke="black" stroke-width="2" /><text fill="white" x="690" y="475" /><polygon fill="white" points="720,460 745,445 770,460 770,490 745,505 720,490" stroke="black" stroke-width="2" /><text fill="white" x="740" y="475" /><polygon fill="white" points="770,460 795,445 820,460 820,490 795,505 770,490" stroke="black" stroke-width="2" /><text fill="white" x="790" y="475" /><polygon fill="white" points="820,460 845,445 870,460 870,490 845,505 820,490" stroke="black" stroke-width="2" /><text fill="white" x="840" y="475" /><polygon fill="white" points="45,505 70,490 95,505 95,535 70,550 45,535" stroke="black" stroke-width="2" /><text fill="white" x="65" y="520" /><polygon fill="#333333" points="95,505 120,490 145,505 145,535 120,550 95,535" stroke="black" stroke-width="2" /><text fill="white" x="115" y="520">a</text><polygon fill="#333333" points="145,505 170,490 195,505 195,535 170,550 145,535" stroke="black" stroke-width="2" /><text fill="white" x="165" y="520">a</text><polygon fill="#333333" points="195,505 220,490 245,505 245,535 220,550 195,535" stroke="black" stroke-width="2" /><text fill="white" x="215" y="520">a</text><polygon fill="white" points="245,505 270,490 295,505 295,535 270,550 245,535" stroke="black" stroke-width="2" /><text fill="white" x="265" y="520" /><polygon fill="#333333" points="295,505 320,490 345,505 345,535 320,550 295,535" stroke="black" stroke-width="2" /><text fill="white" x="315" y="520">a</text><polygon fill="#333333" points="345,505 370,490 395,505 395,535 370,550 345,535" stroke="black" stroke-width="2" /><text fill="white" x="365" y="520">a</text><polygon fill="white" points="395,505 420,490 445,505 445,535 420,550 395,535" stroke="black" stroke-width="2" /><text fill="white" x="415" y="520" /><polygon fill="#ff0000" points="445,505 470,490 495,505 495,535 470,550 445,535" stroke="black" stroke-width="2" /><text fill="white" x="465" y="520">b</text><polygon fill="white" points="495,505 520,490 545,505 545,535 520,550 495,535" stroke="black" stroke-width="2" /><text fill="white" x="515" y="520" /><polygon fill="#333333" points="545,505 570,490 595,505 595,535 570,550 545,535" stroke="black" stroke-width="2" /><text fill="white" x="565" y="520">a</text><polygon fill="white" points="595,505 620,490 645,505 645,535 620,550 595,535" stroke="black" stroke-width="2" /><text fill="white" x="615" y="520" /><polygon fill="white" points="645,505 670,490 695,505 695,535 670,550 645,535" stroke="black" stroke-width="2" /><text fill="white" x="665" y="520" /><polygon fill="white" points="695,505 720,490 745,505 745,535 720,550 695,535" stroke="black" stroke-width="2" /><text fill="white" x="715" y="520" /><polygon fill="white" points="745,505 770,490 795,505 795,535 770,550 745,535" stroke="black" stroke-width="2" /><text fill="white" x="765" y="520" /><polygon fill="white" points="795,505 820,490 845,505 845,535 820,550 795,535" stroke="black" stroke-width="2" /><text fill="white" x="815" y="520" /><polygon fill="#ff0000" points="70,550 95,535 120,550 120,580 95,595 70,580" stroke="black" stroke-width="2" /><text fill="white" x="90" y="565">b</text><polygon fill="#333333" points="120,550 145,535 170,550 170,580 145,595 120,580" stroke="black" stroke-width="2" /><text fill="white" x="140" y="565">a</text><polygon fill="#ff0000" points="170,550 195,535 220,550 220,580 195,595 170,580" stroke="black" stroke-width="2" /><text fill="white" x="190" y="565">b</text><polygon fill="#333333" points="220,550 245,535 270,550 270,580 245,595 220,580" stroke="black" stroke-width="2" /><text fill="white" x="240" y="565">a</text><polygon fill="#333333" points="270,550 295,535 320,550 320,580 295,595 270,580" stroke="black" stroke-width="2" /><text fill="white" x="290" y="565">a</text><polygon fill="#ff0000" points="320,550 345,535 370,550 370,580 345,595 320,580" stroke="black" stroke-width="2" /><text fill="white" x="340" y="565">b</text><polygon fill="white" points="370,550 395,535 420,550 420,580 395,595 370,580" stroke="black" stroke-width="2" /><text fill="white" x="390" y="565" /><polygon fill="white" points="420,550 445,535 470,550 470,580 445,595 420,580" stroke="black" stroke-width="2" /><text fill="white" x="440" y="565" /><polygon fill="#333333" points="470,550 495,535 520,550 520,580 495,595 470,580" stroke="black" stroke-width="2" /><text fill="white" x="490" y="565">a</text><polygon fill="white" points="520,550 545,535 570,550 570,580 545,595 520,580" stroke="black" stroke-width="2" /><text fill="white" x="540" y="565" /><polygon fill="white" points="570,550 595,535 620,550 620,580 595,595 570,580" stroke="black" stroke-width="2" /><text fill="white" x="590" y="565" /><polygon fill="white" points="620,550 645,535 670,550 670,580 645,595 620,580" stroke="black" stroke-width="2" /><text fill="white" x="640" y="565" /><polygon fill="white" points="670,550 695,535 720,550 720,580 695,595 670,580" stroke="black" stroke-width="2" /><text fill="white" x="690" y="565" /><polygon fill="white" points="720,550 745,535 770,550 770,580 745,595 720,580" stroke="black" stroke-width="2" /><text fill="white" x="740" y="565" /><polygon fill="white" points="770,550 795,535 820,550 820,580 795,595 770,580" stroke="black" stroke-width="2" /><text fill="white" x="790" y="565" /><polygon fill="white" points="95,595 120,580 145,595 145,625 120,640 95,625" stroke="black" stroke-width="2" /><text fill="white" x="115" y="610" /><polygon fill="#333333" points="145,595 170,580 195,595 195,625 170,640 145,625" stroke="black" stroke-width="2" /><text fill="white" x="165" y="610">a</text><polygon fill="white" points="195,595 220,580 245,595 245,625 220,640 195,625" stroke="black" stroke-width="2" /><text fill="white" x="215" y="610" /><polygon fill="white" points="245,595 270,580 295,595 295,625 270,640 245,625" stroke="black" stroke-width="2" /><text fill="white" x="265" y="610" /><polygon fill="white" points="295,595 320,580 345,595 345,625 320,640 295,625" stroke="black" stroke-width="2" /><text fill="white" x="315" y="610" /><polygon fill="#333333" points="345,595 370,580 395,595 395,625 370,640 345,625" stroke="black" stroke-width="2" /><text fill="white" x="365" y="610">a</text><polygon fill="#333333" points="395,595 420,580 445,595 445,625 420,640 395,625" stroke="black" stroke-width="2" /><text fill="white" x="415" y="610">a</text><polygon fill="white" points="445,595 470,580 495,595 495,625 470,640 445,625" stroke="black" stroke-width="2" /><text fill="white" x="465" y="610" /><polygon fill="#333333" points="495,595 520,580 545,595 545,625 520,640 495,625" stroke="black" stroke-width="2" /><text fill="white" x="515" y="610">a</text><polygon fill="white" points="545,595 570,580 595,595 595,625 570,640 545,625" stroke="black" stroke-width="2" /><text fill="white" x="565" y="610" /><polygon fill="#333333" points="595,595 620,580 645,595 645,625 620,640 595,625" stroke="black" stroke-width="2" /><text fill="white" x="615" y="610">a</text><polygon fill="white" points="645,595 670,580 695,595 695,625 670,640 645,625" stroke="black" stroke-width="2" /><text fill="white" x="665" y="610" /><polygon fill="white" points="695,595 720,580 745,595 745,625 720,640 695,625" stroke="black" stroke-width="2" /><text fill="white" x="715" y="610" /><polygon fill="white" points="745,595 770,580 795,595 795,625 770,640 745,625" stroke="black" stroke-width="2" /><text fill="white" x="765" y="610" /><polygon fill="#ff0000" points="120,640 145,625 170,640 170,670 145,685 120,670" stroke="black" stroke-width="2" /><text fill="white" x="140" y="655">b</text><polygon fill="#333333" points="170,640 195,625 220,640 220,670 195,685 170,670" stroke="black" stroke-width="2" /><text fill="white" x="190" y="655">a</text><polygon fill="white" points="220,640 245,625 270,640 270,670 245,685 220,670" stroke="black" stroke-width="2" /><text fill="white" x="240" y="655" /><polygon fill="#333333" points="270,640 295,625 320,640 320,670 295,685 270,670" stroke="black" stroke-width="2" /><text fill="white" x="290" y="655">a</text><polygon fill="white" points="320,640 345,625 370,640 370,670 345,685 320,670" stroke="black" stroke-width="2" /><text fill="white" x="340" y="655" /><polygon fill="white" points="370,640 395,625 420,640 420,670 395,685 370,670" stroke="black" stroke-width="2" /><text fill="white" x="390" y="655" /><polygon fill="white" points="420,640 445,625 470,640 470,670 445,685 420,670" stroke="black" stroke-width="2" /><text fill="white" x="440" y="655" /><polygon fill="white" points="470,640 495,625 520,640 520,670 495,685 470,670" stroke="black" stroke-width="2" /><text fill="white" x="490" y="655" /><polygon fill="#ff0000" points="520,640 545,625 570,640 570,670 545,685 520,670" stroke="black" stroke-width="2" /><text fill="white" x="540" y="655">b</text><polygon fill="white" points="570,640 595,625 620,640 620,670 595,685 570,670" stroke="black" stroke-width="2" /><text fill="white" x="590" y="655" /><polygon fill="#ff0000" points="620,640 645,625 670,640 670,670 645,685 620,670" stroke="black" stroke-width="2" /><text fill="white" x="640" y="655">b</text><polygon fill="white" points="670,640 695,625 720,640 720,670 695,685 670,670" stroke="black" stroke-width="2" /><text fill="white" x="690" y="655" /><polygon fill="white" points="720,640 745,625 770,640 770,670 745,685 720,670" stroke="black" stroke-width="2" /><text fill="white" x="740" y="655" /><polygon fill="white" points="145,685 170,670 195,685 195,715 170,730 145,715" stroke="black" stroke-width="2" /><text fill="white" x="165" y="700" /><polygon fill="white" points="195,685 220,670 245,685 245,715 220,730 195,715" stroke="black" stroke-width="2" /><text fill="white" x="215" y="700" /><polygon fill="white" points="245,685 270,670 295,685 295,715 270,730 245,715" stroke="black" stroke-width="2" /><text fill="white" x="265" y="700" /><polygon fill="white" points="295,685 320,670 345,685 345,715 320,730 295,715" stroke="black" stroke-width="2" /><text fill="white" x="315" y="700" /><polygon fill="white" points="345,685 370,670 395,685 395,715 370,730 345,715" stroke="black" stroke-width="2" /><text fill="white" x="365" y="700" /><polygon fill="white" points="395,685 420,670 445,685 445,715 420,730 395,715" stroke="black" stroke-width="2" /><text fill="white" x="415" y="700" /><polygon fill="#333333" points="445,685 470,670 495,685 495,715 470,730 445,715" stroke="black" stroke-width="2" /><text fill="white" x="465" y="700">a</text><polygon fill="white" points="495,685 520,670 545,685 545,715 520,730 495,715" stroke="black" stroke-width="2" /><text fill="white" x="515" y="700" /><polygon fill="white" points="545,685 570,670 595,685 595,715 570,730 545,715" stroke="black" stroke-width="2" /><text fill="white" x="565" y="700" /><polygon fill="white" points="595,685 620,670 645,685 645,715 620,730 595,715" stroke="black" stroke-width="2" /><text fill="white" x="615" y="700" /><polygon fill="white" points="645,685 670,670 695,685 695,715 670,730 645,715" stroke="black" stroke-width="2" /><text fill="white" x="665" y="700" /><polygon fill="white" points="695,685 720,670 745,685 745,715 720,730 695,715" stroke="black" stroke-width="2" /><text fill="white" x="715" y="700" /><polygon fill="#ff0000" points="170,730 195,715 220,730 220,760 195,775 170,760" stroke="black" stroke-width="2" /><text fill="white" x="190" y="745">b</text><polygon fill="#333333" points="220,730 245,715 270,730 270,760 245,775 220,760" stroke="black" stroke-width="2" /><text fill="white" x="240" y="745">a</text><polygon fill="white" points="270,730 295,715 320,730 320,760 295,775 270,760" stroke="black" stroke-width="2" /><text fill="white" x="290" y="745" /><polygon fill="white" points="320,730 345,715 370,730 370,760 345,775 320,760" stroke="black" stroke-width="2" /><text fill="white" x="340" y="745" /><polygon fill="white" points="370,730 395,715 420,730 420,760 395,775 370,760" stroke="black" stroke-width="2" /><text fill="white" x="390" y="745" /><polygon fill="white" points="420,730 445,715 470,730 470,760 445,775 420,760" stroke="black" stroke-width="2" /><text fill="white" x="440" y="745" /><polygon fill="#ff0000" points="470,730 495,715 520,730 520,760 495,775 470,760" stroke="black" stroke-width="2" /><text fill="white" x="490" y="745">b</text><polygon fill="white" points="520,730 545,715 570,730 570,760 545,775 520,760" stroke="black" stroke-width="2" /><text fill="white" x="540" y="745" /><polygon fill="white" points="570,730 595,715 620,730 620,760 595,775 570,760" stroke="black" stroke-width="2" /><text fill="white" x="590" y="745" /><polygon fill="white" points="620,730 645,715 670,730 670,760 645,775 620,760" stroke="black" stroke-width="2" /><text fill="white" x="640" y="745" /><polygon fill="white" points="670,730 695,715 720,730 720,760 695,775 670,760" stroke="black" stroke-width="2" /><text fill="white" x="690" y="745" /><polygon fill="white" points="195,775 220,760 245,775 245,805 220,820 195,805" stroke="black" stroke-width="2" /><text fill="white" x="215" y="790" /><polygon fill="white" points="245,775 270,760 295,775 295,805 270,820 245,805" stroke="black" stroke-width="2" /><text fill="white" x="265" y="790" /><polygon fill="white" points="295,775 320,760 345,775 345,805 320,820 295,805" stroke="black" stroke-width="2" /><text fill="white" x="315" y="790" /><polygon fill="white" points="345,775 370,760 395,775 395,805 370,820 345,805" stroke="black" stroke-width="2" /><text fill="white" x="365" y="790" /><polygon fill="white" points="395,775 420,760 445,775 445,805 420,820 395,805" stroke="black" stroke-width="2" /><text fill="white" x="415" y="790" /><polygon fill="white" points="445,775 470,760 495,775 495,805 470,820 445,805" stroke="black" stroke-width="2" /><text fill="white" x="465" y="790" /><polygon fill="white" points="495,775 520,760 545,775 545,805 520,820 495,805" stroke="black" stroke-width="2" /><text fill="white" x="515" y="790" /><polygon fill="white" points="545,775 570,760 595,775 595,805 570,820 545,805" stroke="black" stroke-width="2" /><text fill="white" x="565" y="790" /><polygon fill="white" points="595,775 620,760 645,775 645,805 620,820 595,805" stroke="black" stroke-width="2" /><text fill="white" x="615" y="790" /><polygon fill="white" points="645,775 670,760 695,775 695,805 670,820 645,805" stroke="black" stroke-width="2" /><text fill="white" x="665" y="790" /><polygon fill="white" points="220,820 245,805 270,820 270,850 245,865 220,850" stroke="black" stroke-width="2" /><text fill="white" x="240" y="835" /><polygon fill="white" points="270,820 295,805 320,820 320,850 295,865 270,850" stroke="black" stroke-width="2" /><text fill="white" x="290" y="835" /><polygon fill="white" points="320,820 345,805 370,820 370,850 345,865 320,850" stroke="black" stroke-width="2" /><text fill="white" x="340" y="835" /><polygon fill="white" points="370,820 395,805 420,820 420,850 395,865 370,850" stroke="black" stroke-width="2" /><text fill="white" x="390" y="835" /><polygon fill="white" points="420,820 445,805 470,820 470,850 445,865 420,850" stroke="black" stroke-width="2" /><text fill="white" x="440" y="835" /><polygon fill="white" points="470,820 495,805 520,820 520,850 495,865 470,850" stroke="black" stroke-width="2" /><text fill="white" x="490" y="835" /><polygon fill="white" points="520,820 545,805 570,820 570,850 545,865 520,850" stroke="black" stroke-width="2" /><text fill="white" x="540" y="835" /><polygon fill="white" points="570,820 595,805 620,820 620,850 595,865 570,850" stroke="black" stroke-width="2" /><text fill="white" x="590" y="835" /><polygon fill="white" points="620,820 645,805 670,820 670,850 645,865 620,850" stroke="black" stroke-width="2" /><text fill="white" x="640" y="835" /></svg>