<?xml version="1.0" encoding="utf-8" ?>
<svg baseProfile="full" height="1000px" version="1.1" width="1250px" xmlns="http://www.w3.org/2000/svg" xmlns:ev="http://www.w3.org/2001/xml-events" xmlns:xlink="http://www.w3.org/1999/xlink"><defs /><rect fill="white" height="50px" stroke="black" stroke-width="2.5" width="50px" x="100" y="100" /><text fill="white" x="120" y="130" /><rect fill="#333333" height="50px" stroke="black" stroke-width="2.5" width="50px" x="150" y="100" /><text fill="white" x="170" y="130">a</text><rect fill="white" height="50px" stroke="black" stroke-width="2.5" width="50px" x="200" y="100" /><text fill="white" x="220" y="130" /><rect fill="white" height="50px" stroke="black" stroke-width="2.5" width="50px" x="250" y="100" /><text fill="white" x="270" y="130" /><rect fill="#333333" height="50px" stroke="black" stroke-width="2.5" width="50px" x="300" y="100" /><text fill="white" x="320" y="130">a</text><rect fill="#6666ff" height="50px" stroke="black" stroke-width="2.5" width="50px" x="100" y="150" /><text fill="white" x="120" y="180">b</text><rect fill="white" height="50px" stroke="black" stroke-width="2.5" width="50px" x="150" y="150" /><text fill="white" x="170" y="180" /><rect fill="#333333" height="50px" stroke="black" stroke-width="2.5" width="50px" x="200" y="150" /><text fill="white" x="220" y="180">a</text><rect fill="white" height="50px" stroke="black" stroke-width="2.5" width="50px" x="250" y="150" /><text fill="white" x="270" y="180" /><rect fill="#333333" height="50px" stroke="black" stroke-width="2.5" width="50px" x="300" y="150" /><text fill="white" x="320" y="180">a</text><rect fill="#6666ff" height="50px" stroke="black" stroke-width="2.5" width="50px" x="100" y="200" /><text fill="white" x="120" y="230">b</text><rect fill="#6666ff" height="50px" stroke="black" stroke-width="2.5" width="50px" x="150" y="200" /><text fill="white" x="170" y="230">b</text><rect fill="#333333" height="50px" stroke="black" stroke-width="2.5" width="50px" x="200" y="200" /><text fill="white" x="220" y="230">a</text><rect fill="white" height="50px" stroke="black" stroke-width="2.5" width="50px" x="250" y="200" /><text fill="white" x="270" y="230" /><rect fill="#333333" height="50px" stroke="black" stroke-width="2.5" width="50px" x="300" y="200" /><text fill="white" x="320" y="230">a</text><rect fill="#6666ff" height="50px" stroke="black" stroke-width="2.5" width="50px" x="100" y="250" /><text fill="white" x="120" y="280">b</text><rect fill="white" height="50px" stroke="black" stroke-width="2.5" width="50px" x="150" y="250" /><text fill="white" x="170" y="280" /><rect fill="#6666ff" height="50px" stroke="black" stroke-width="2.5" width="50px" x="200" y="250" /><text fill="white" x="220" y="280">b</text><rect fill="white" height="50px" stroke="black" stroke-width="2.5" width="50px" x="250" y="250" /><text fill="white" x="270" y="280" /><rect fill="#333333" height="50px" stroke="black" stroke-width="2.5" width="50px" x="300" y="250" /><text fill="white" x="320" y="280">a</text></svg>