<?xml version="1.0" encoding="utf-8" ?>
<svg baseProfile="full" height="1000px" version="1.1" width="1000px" xmlns="http://www.w3.org/2000/svg" xmlns:ev="http://www.w3.org/2001/xml-events" xmlns:xlink="http://www.w3.org/1999/xlink"><defs /><polygon fill="#999900" points="130,100 155,85 180,100 180,130 155,145 130,130" stroke="black" stroke-width="2" /><text fill="white" x="150" y="115">b</text><polygon fill="white" points="180,100 205,85 230,100 230,130 205,145 180,130" stroke="black" stroke-width="2" /><text fill="white" x="200" y="115" /><polygon fill="#999900" points="230,100 255,85 280,100 280,130 255,145 230,130" stroke="black" stroke-width="2" /><text fill="white" x="250" y="115">b</text><polygon fill="#999900" points="105,145 130,130 155,145 155,175 130,190 105,175" stroke="black" stroke-width="2" /><text fill="white" x="125" y="160">b</text><polygon fill="#333333" points="155,145 180,130 205,145 205,175 180,190 155,175" stroke="black" stroke-width="2" /><text fill="white" x="175" y="160">a</text><polygon fill="#333333" points="205,145 230,130 255,145 255,175 230,190 205,175" stroke="black" stroke-width="2" /><text fill="white" x="225" y="160">a</text><polygon fill="#999900" points="255,145 280,130 305,145 305,175 280,190 255,175" stroke="black" stroke-width="2" /><text fill="white" x="275" y="160">b</text><polygon fill="white" points="80,190 105,175 130,190 130,220 105,235 80,220" stroke="black" stroke-width="2" /><text fill="white" x="100" y="205" /><polygon fill="#333333" points="130,190 155,175 180,190 180,220 155,235 130,220" stroke="black" stroke-width="2" /><text fill="white" x="150" y="205">a</text><polygon fill="#3333ff" points="180,190 205,175 230,190 230,220 205,235 180,220" stroke="black" stroke-width="2" /><text fill="white" x="200" y="205">c</text><polygon fill="#333333" points="230,190 255,175 280,190 280,220 255,235 230,220" stroke="black" stroke-width="2" /><text fill="white" x="250" y="205">a</text><polygon fill="white" points="280,190 305,175 330,190 330,220 305,235 280,220" stroke="black" stroke-width="2" /><text fill="white" x="300" y="205" /><polygon fill="#333333" points="105,235 130,220 155,235 155,265 130,280 105,265" stroke="black" stroke-width="2" /><text fill="white" x="125" y="250">a</text><polygon fill="#333333" points="155,235 180,220 205,235 205,265 180,280 155,265" stroke="black" stroke-width="2" /><text fill="white" x="175" y="250">a</text><polygon fill="#333333" points="205,235 230,220 255,235 255,265 230,280 205,265" stroke="black" stroke-width="2" /><text fill="white" x="225" y="250">a</text><polygon fill="#333333" points="255,235 280,220 305,235 305,265 280,280 255,265" stroke="black" stroke-width="2" /><text fill="white" x="275" y="250">a</text><polygon fill="white" points="130,280 155,265 180,280 180,310 155,325 130,310" stroke="black" stroke-width="2" /><text fill="white" x="150" y="295" /><polygon fill="white" points="180,280 205,265 230,280 230,310 205,325 180,310" stroke="black" stroke-width="2" /><text fill="white" x="200" y="295" /><polygon fill="white" points="230,280 255,265 280,280 280,310 255,325 230,310" stroke="black" stroke-width="2" /><text fill="white" x="250" y="295" /></svg>