<?xml version="1.0" encoding="utf-8" ?>
<svg baseProfile="full" height="3000px" version="1.1" width="4500px" xmlns="http://www.w3.org/2000/svg" xmlns:ev="http://www.w3.org/2001/xml-events" xmlns:xlink="http://www.w3.org/1999/xlink"><defs /><rect fill="white" height="50px" stroke="black" stroke-width="2.5" width="50px" x="100" y="100" /><text fill="white" x="120" y="130" /><rect fill="#00cc00" height="50px" stroke="black" stroke-width="2.5" width="50px" x="150" y="100" /><text fill="white" x="170" y="130">b</text><rect fill="#00cc00" height="50px" stroke="black" stroke-width="2.5" width="50px" x="200" y="100" /><text fill="white" x="220" y="130">b</text><rect fill="#00cc00" height="50px" stroke="black" stroke-width="2.5" width="50px" x="250" y="100" /><text fill="white" x="270" y="130">b</text><rect fill="#00cc00" height="50px" stroke="black" stroke-width="2.5" width="50px" x="300" y="100" /><text fill="white" x="320" y="130">b</text><rect fill="#00cc00" height="50px" stroke="black" stroke-width="2.5" width="50px" x="350" y="100" /><text fill="white" x="370" y="130">b</text><rect fill="white" height="50px" stroke="black" stroke-width="2.5" width="50px" x="400" y="100" /><text fill="white" x="420" y="130" /><rect fill="#00cc00" height="50px" stroke="black" stroke-width="2.5" width="50px" x="450" y="100" /><text fill="white" x="470" y="130">b</text><rect fill="white" height="50px" stroke="black" stroke-width="2.5" width="50px" x="500" y="100" /><text fill="white" x="520" y="130" /><rect fill="white" height="50px" stroke="black" stroke-width="2.5" width="50px" x="550" y="100" /><text fill="white" x="570" y="130" /><rect fill="#00cc00" height="50px" stroke="black" stroke-width="2.5" width="50px" x="600" y="100" /><text fill="white" x="620" y="130">b</text><rect fill="#00cc00" height="50px" stroke="black" stroke-width="2.5" width="50px" x="650" y="100" /><text fill="white" x="670" y="130">b</text><rect fill="#00cc00" height="50px" stroke="black" stroke-width="2.5" width="50px" x="700" y="100" /><text fill="white" x="720" y="130">b</text><rect fill="#00cc00" height="50px" stroke="black" stroke-width="2.5" width="50px" x="750" y="100" /><text fill="white" x="770" y="130">b</text><rect fill="#00cc00" height="50px" stroke="black" stroke-width="2.5" width="50px" x="800" y="100" /><text fill="white" x="820" y="130">b</text><rect fill="white" height="50px" stroke="black" stroke-width="2.5" width="50px" x="850" y="100" /><text fill="white" x="870" y="130" /><rect fill="white" height="50px" stroke="black" stroke-width="2.5" width="50px" x="900" y="100" /><text fill="white" x="920" y="130" /><rect fill="white" height="50px" stroke="black" stroke-width="2.5" width="50px" x="950" y="100" /><text fill="white" x="970" y="130" /><rect fill="white" height="50px" stroke="black" stroke-width="2.5" width="50px" x="100" y="150" /><text fill="white" x="120" y="180" /><rect fill="#00cc00" height="50px" stroke="black" stroke-width="2.5" width="50px" x="150" y="150" /><text fill="white" x="170" y="180">b</text><rect fill="white" height="50px" stroke="black" stroke-width="2.5" width="50px" x="200" y="150" /><text fill="white" x="220" y="180" /><rect fill="#333333" height="50px" stroke="black" stroke-width="2.5" width="50px" x="250" y="150" /><text fill="white" x="270" y="180">a</text><rect fill="white" height="50px" stroke="black" stroke-width="2.5" width="50px" x="300" y="150" /><text fill="white" x="320" y="180" /><rect fill="white" height="50px" stroke="black" stroke-width="2.5" width="50px" x="350" y="150" /><text fill="white" x="370" y="180" /><rect fill="white" height="50px" stroke="black" stroke-width="2.5" width="50px" x="400" y="150" /><text fill="white" x="420" y="180" /><rect fill="#00cc00" height="50px" stroke="black" stroke-width="2.5" width="50px" x="450" y="150" /><text fill="white" x="470" y="180">b</text><rect fill="white" height="50px" stroke="black" stroke-width="2.5" width="50px" x="500" y="150" /><text fill="white" x="520" y="180" /><rect fill="white" height="50px" stroke="black" stroke-width="2.5" width="50px" x="550" y="150" /><text fill="white" x="570" y="180" /><rect fill="white" height="50px" stroke="black" stroke-width="2.5" width="50px" x="600" y="150" /><text fill="white" x="620" y="180" /><rect fill="white" height="50px" stroke="black" stroke-width="2.5" width="50px" x="650" y="150" /><text fill="white" x="670" y="180" /><rect fill="#333333" height="50px" stroke="black" stroke-width="2.5" width="50px" x="700" y="150" /><text fill="white" x="720" y="180">a</text><rect fill="white" height="50px" stroke="black" stroke-width="2.5" width="50px" x="750" y="150" /><text fill="white" x="770" y="180" /><rect fill="white" height="50px" stroke="black" stroke-width="2.5" width="50px" x="800" y="150" /><text fill="white" x="820" y="180" /><rect fill="white" height="50px" stroke="black" stroke-width="2.5" width="50px" x="850" y="150" /><text fill="white" x="870" y="180" /><rect fill="white" height="50px" stroke="black" stroke-width="2.5" width="50px" x="900" y="150" /><text fill="white" x="920" y="180" /><rect fill="white" height="50px" stroke="black" stroke-width="2.5" width="50px" x="950" y="150" /><text fill="white" x="970" y="180" /><rect fill="white" height="50px" stroke="black" stroke-width="2.5" width="50px" x="100" y="200" /><text fill="white" x="120" y="230" /><rect fill="white" height="50px" stroke="black" stroke-width="2.5" width="50px" x="150" y="200" /><text fill="white" x="170" y="230" /><rect fill="white" height="50px" stroke="black" stroke-width="2.5" width="50px" x="200" y="200" /><text fill="white" x="220" y="230" /><rect fill="#333333" height="50px" stroke="black" stroke-width="2.5" width="50px" x="250" y="200" /><text fill="white" x="270" y="230">a</text><rect fill="white" height="50px" stroke="black" stroke-width="2.5" width="50px" x="300" y="200" /><text fill="white" x="320" y="230" /><rect fill="white" height="50px" stroke="black" stroke-width="2.5" width="50px" x="350" y="200" /><text fill="white" x="370" y="230" /><rect fill="#00cc00" height="50px" stroke="black" stroke-width="2.5" width="50px" x="400" y="200" /><text fill="white" x="420" y="230">b</text><rect fill="#00cc00" height="50px" stroke="black" stroke-width="2.5" width="50px" x="450" y="200" /><text fill="white" x="470" y="230">b</text><rect fill="#00cc00" height="50px" stroke="black" stroke-width="2.5" width="50px" x="500" y="200" /><text fill="white" x="520" y="230">b</text><rect fill="white" height="50px" stroke="black" stroke-width="2.5" width="50px" x="550" y="200" /><text fill="white" x="570" y="230" /><rect fill="white" height="50px" stroke="black" stroke-width="2.5" width="50px" x="600" y="200" /><text fill="white" x="620" y="230" /><rect fill="white" height="50px" stroke="black" stroke-width="2.5" width="50px" x="650" y="200" /><text fill="white" x="670" y="230" /><rect fill="#333333" height="50px" stroke="black" stroke-width="2.5" width="50px" x="700" y="200" /><text fill="white" x="720" y="230">a</text><rect fill="white" height="50px" stroke="black" stroke-width="2.5" width="50px" x="750" y="200" /><text fill="white" x="770" y="230" /><rect fill="#00cc00" height="50px" stroke="black" stroke-width="2.5" width="50px" x="800" y="200" /><text fill="white" x="820" y="230">b</text><rect fill="#00cc00" height="50px" stroke="black" stroke-width="2.5" width="50px" x="850" y="200" /><text fill="white" x="870" y="230">b</text><rect fill="#00cc00" height="50px" stroke="black" stroke-width="2.5" width="50px" x="900" y="200" /><text fill="white" x="920" y="230">b</text><rect fill="white" height="50px" stroke="black" stroke-width="2.5" width="50px" x="950" y="200" /><text fill="white" x="970" y="230" /><rect fill="white" height="50px" stroke="black" stroke-width="2.5" width="50px" x="100" y="250" /><text fill="white" x="120" y="280" /><rect fill="white" height="50px" stroke="black" stroke-width="2.5" width="50px" x="150" y="250" /><text fill="white" x="170" y="280" /><rect fill="#00cc00" height="50px" stroke="black" stroke-width="2.5" width="50px" x="200" y="250" /><text fill="white" x="220" y="280">b</text><rect fill="white" height="50px" stroke="black" stroke-width="2.5" width="50px" x="250" y="250" /><text fill="white" x="270" y="280" /><rect fill="white" height="50px" stroke="black" stroke-width="2.5" width="50px" x="300" y="250" /><text fill="white" x="320" y="280" /><rect fill="white" height="50px" stroke="black" stroke-width="2.5" width="50px" x="350" y="250" /><text fill="white" x="370" y="280" /><rect fill="#00cc00" height="50px" stroke="black" stroke-width="2.5" width="50px" x="400" y="250" /><text fill="white" x="420" y="280">b</text><rect fill="#00cc00" height="50px" stroke="black" stroke-width="2.5" width="50px" x="450" y="250" /><text fill="white" x="470" y="280">b</text><rect fill="#00cc00" height="50px" stroke="black" stroke-width="2.5" width="50px" x="500" y="250" /><text fill="white" x="520" y="280">b</text><rect fill="white" height="50px" stroke="black" stroke-width="2.5" width="50px" x="550" y="250" /><text fill="white" x="570" y="280" /><rect fill="white" height="50px" stroke="black" stroke-width="2.5" width="50px" x="600" y="250" /><text fill="white" x="620" y="280" /><rect fill="white" height="50px" stroke="black" stroke-width="2.5" width="50px" x="650" y="250" /><text fill="white" x="670" y="280" /><rect fill="white" height="50px" stroke="black" stroke-width="2.5" width="50px" x="700" y="250" /><text fill="white" x="720" y="280" /><rect fill="white" height="50px" stroke="black" stroke-width="2.5" width="50px" x="750" y="250" /><text fill="white" x="770" y="280" /><rect fill="#00cc00" height="50px" stroke="black" stroke-width="2.5" width="50px" x="800" y="250" /><text fill="white" x="820" y="280">b</text><rect fill="#00cc00" height="50px" stroke="black" stroke-width="2.5" width="50px" x="850" y="250" /><text fill="white" x="870" y="280">b</text><rect fill="#00cc00" height="50px" stroke="black" stroke-width="2.5" width="50px" x="900" y="250" /><text fill="white" x="920" y="280">b</text><rect fill="white" height="50px" stroke="black" stroke-width="2.5" width="50px" x="950" y="250" /><text fill="white" x="970" y="280" /><rect fill="white" height="50px" stroke="black" stroke-width="2.5" width="50px" x="100" y="300" /><text fill="white" x="120" y="330" /><rect fill="white" height="50px" stroke="black" stroke-width="2.5" width="50px" x="150" y="300" /><text fill="white" x="170" y="330" /><rect fill="#00cc00" height="50px" stroke="black" stroke-width="2.5" width="50px" x="200" y="300" /><text fill="white" x="220" y="330">b</text><rect fill="white" height="50px" stroke="black" stroke-width="2.5" width="50px" x="250" y="300" /><text fill="white" x="270" y="330" /><rect fill="white" height="50px" stroke="black" stroke-width="2.5" width="50px" x="300" y="300" /><text fill="white" x="320" y="330" /><rect fill="#00cc00" height="50px" stroke="black" stroke-width="2.5" width="50px" x="350" y="300" /><text fill="white" x="370" y="330">b</text><rect fill="#00cc00" height="50px" stroke="black" stroke-width="2.5" width="50px" x="400" y="300" /><text fill="white" x="420" y="330">b</text><rect fill="#00cc00" height="50px" stroke="black" stroke-width="2.5" width="50px" x="450" y="300" /><text fill="white" x="470" y="330">b</text><rect fill="#00cc00" height="50px" stroke="black" stroke-width="2.5" width="50px" x="500" y="300" /><text fill="white" x="520" y="330">b</text><rect fill="#00cc00" height="50px" stroke="black" stroke-width="2.5" width="50px" x="550" y="300" /><text fill="white" x="570" y="330">b</text><rect fill="white" height="50px" stroke="black" stroke-width="2.5" width="50px" x="600" y="300" /><text fill="white" x="620" y="330" /><rect fill="#00cc00" height="50px" stroke="black" stroke-width="2.5" width="50px" x="650" y="300" /><text fill="white" x="670" y="330">b</text><rect fill="white" height="50px" stroke="black" stroke-width="2.5" width="50px" x="700" y="300" /><text fill="white" x="720" y="330" /><rect fill="#00cc00" height="50px" stroke="black" stroke-width="2.5" width="50px" x="750" y="300" /><text fill="white" x="770" y="330">b</text><rect fill="#00cc00" height="50px" stroke="black" stroke-width="2.5" width="50px" x="800" y="300" /><text fill="white" x="820" y="330">b</text><rect fill="#00cc00" height="50px" stroke="black" stroke-width="2.5" width="50px" x="850" y="300" /><text fill="white" x="870" y="330">b</text><rect fill="#00cc00" height="50px" stroke="black" stroke-width="2.5" width="50px" x="900" y="300" /><text fill="white" x="920" y="330">b</text><rect fill="#00cc00" height="50px" stroke="black" stroke-width="2.5" width="50px" x="950" y="300" /><text fill="white" x="970" y="330">b</text><rect fill="white" height="50px" stroke="black" stroke-width="2.5" width="50px" x="100" y="350" /><text fill="white" x="120" y="380" /><rect fill="#00cc00" height="50px" stroke="black" stroke-width="2.5" width="50px" x="150" y="350" /><text fill="white" x="170" y="380">b</text><rect fill="#00cc00" height="50px" stroke="black" stroke-width="2.5" width="50px" x="200" y="350" /><text fill="white" x="220" y="380">b</text><rect fill="#00cc00" height="50px" stroke="black" stroke-width="2.5" width="50px" x="250" y="350" /><text fill="white" x="270" y="380">b</text><rect fill="white" height="50px" stroke="black" stroke-width="2.5" width="50px" x="300" y="350" /><text fill="white" x="320" y="380" /><rect fill="#00cc00" height="50px" stroke="black" stroke-width="2.5" width="50px" x="350" y="350" /><text fill="white" x="370" y="380">b</text><rect fill="#00cc00" height="50px" stroke="black" stroke-width="2.5" width="50px" x="400" y="350" /><text fill="white" x="420" y="380">b</text><rect fill="#00cc00" height="50px" stroke="black" stroke-width="2.5" width="50px" x="450" y="350" /><text fill="white" x="470" y="380">b</text><rect fill="#00cc00" height="50px" stroke="black" stroke-width="2.5" width="50px" x="500" y="350" /><text fill="white" x="520" y="380">b</text><rect fill="#00cc00" height="50px" stroke="black" stroke-width="2.5" width="50px" x="550" y="350" /><text fill="white" x="570" y="380">b</text><rect fill="white" height="50px" stroke="black" stroke-width="2.5" width="50px" x="600" y="350" /><text fill="white" x="620" y="380" /><rect fill="#00cc00" height="50px" stroke="black" stroke-width="2.5" width="50px" x="650" y="350" /><text fill="white" x="670" y="380">b</text><rect fill="white" height="50px" stroke="black" stroke-width="2.5" width="50px" x="700" y="350" /><text fill="white" x="720" y="380" /><rect fill="#00cc00" height="50px" stroke="black" stroke-width="2.5" width="50px" x="750" y="350" /><text fill="white" x="770" y="380">b</text><rect fill="#00cc00" height="50px" stroke="black" stroke-width="2.5" width="50px" x="800" y="350" /><text fill="white" x="820" y="380">b</text><rect fill="#00cc00" height="50px" stroke="black" stroke-width="2.5" width="50px" x="850" y="350" /><text fill="white" x="870" y="380">b</text><rect fill="#00cc00" height="50px" stroke="black" stroke-width="2.5" width="50px" x="900" y="350" /><text fill="white" x="920" y="380">b</text><rect fill="#00cc00" height="50px" stroke="black" stroke-width="2.5" width="50px" x="950" y="350" /><text fill="white" x="970" y="380">b</text><rect fill="white" height="50px" stroke="black" stroke-width="2.5" width="50px" x="100" y="400" /><text fill="white" x="120" y="430" /><rect fill="#00cc00" height="50px" stroke="black" stroke-width="2.5" width="50px" x="150" y="400" /><text fill="white" x="170" y="430">b</text><rect fill="#00cc00" height="50px" stroke="black" stroke-width="2.5" width="50px" x="200" y="400" /><text fill="white" x="220" y="430">b</text><rect fill="#00cc00" height="50px" stroke="black" stroke-width="2.5" width="50px" x="250" y="400" /><text fill="white" x="270" y="430">b</text><rect fill="white" height="50px" stroke="black" stroke-width="2.5" width="50px" x="300" y="400" /><text fill="white" x="320" y="430" /><rect fill="white" height="50px" stroke="black" stroke-width="2.5" width="50px" x="350" y="400" /><text fill="white" x="370" y="430" /><rect fill="white" height="50px" stroke="black" stroke-width="2.5" width="50px" x="400" y="400" /><text fill="white" x="420" y="430" /><rect fill="#333333" height="50px" stroke="black" stroke-width="2.5" width="50px" x="450" y="400" /><text fill="white" x="470" y="430">a</text><rect fill="white" height="50px" stroke="black" stroke-width="2.5" width="50px" x="500" y="400" /><text fill="white" x="520" y="430" /><rect fill="white" height="50px" stroke="black" stroke-width="2.5" width="50px" x="550" y="400" /><text fill="white" x="570" y="430" /><rect fill="#00cc00" height="50px" stroke="black" stroke-width="2.5" width="50px" x="600" y="400" /><text fill="white" x="620" y="430">b</text><rect fill="#00cc00" height="50px" stroke="black" stroke-width="2.5" width="50px" x="650" y="400" /><text fill="white" x="670" y="430">b</text><rect fill="#00cc00" height="50px" stroke="black" stroke-width="2.5" width="50px" x="700" y="400" /><text fill="white" x="720" y="430">b</text><rect fill="white" height="50px" stroke="black" stroke-width="2.5" width="50px" x="750" y="400" /><text fill="white" x="770" y="430" /><rect fill="#00cc00" height="50px" stroke="black" stroke-width="2.5" width="50px" x="800" y="400" /><text fill="white" x="820" y="430">b</text><rect fill="#00cc00" height="50px" stroke="black" stroke-width="2.5" width="50px" x="850" y="400" /><text fill="white" x="870" y="430">b</text><rect fill="#00cc00" height="50px" stroke="black" stroke-width="2.5" width="50px" x="900" y="400" /><text fill="white" x="920" y="430">b</text><rect fill="white" height="50px" stroke="black" stroke-width="2.5" width="50px" x="950" y="400" /><text fill="white" x="970" y="430" /><rect fill="#00cc00" height="50px" stroke="black" stroke-width="2.5" width="50px" x="100" y="450" /><text fill="white" x="120" y="480">b</text><rect fill="#00cc00" height="50px" stroke="black" stroke-width="2.5" width="50px" x="150" y="450" /><text fill="white" x="170" y="480">b</text><rect fill="#00cc00" height="50px" stroke="black" stroke-width="2.5" width="50px" x="200" y="450" /><text fill="white" x="220" y="480">b</text><rect fill="#00cc00" height="50px" stroke="black" stroke-width="2.5" width="50px" x="250" y="450" /><text fill="white" x="270" y="480">b</text><rect fill="#00cc00" height="50px" stroke="black" stroke-width="2.5" width="50px" x="300" y="450" /><text fill="white" x="320" y="480">b</text><rect fill="white" height="50px" stroke="black" stroke-width="2.5" width="50px" x="350" y="450" /><text fill="white" x="370" y="480" /><rect fill="white" height="50px" stroke="black" stroke-width="2.5" width="50px" x="400" y="450" /><text fill="white" x="420" y="480" /><rect fill="#333333" height="50px" stroke="black" stroke-width="2.5" width="50px" x="450" y="450" /><text fill="white" x="470" y="480">a</text><rect fill="white" height="50px" stroke="black" stroke-width="2.5" width="50px" x="500" y="450" /><text fill="white" x="520" y="480" /><rect fill="white" height="50px" stroke="black" stroke-width="2.5" width="50px" x="550" y="450" /><text fill="white" x="570" y="480" /><rect fill="#00cc00" height="50px" stroke="black" stroke-width="2.5" width="50px" x="600" y="450" /><text fill="white" x="620" y="480">b</text><rect fill="#00cc00" height="50px" stroke="black" stroke-width="2.5" width="50px" x="650" y="450" /><text fill="white" x="670" y="480">b</text><rect fill="#00cc00" height="50px" stroke="black" stroke-width="2.5" width="50px" x="700" y="450" /><text fill="white" x="720" y="480">b</text><rect fill="white" height="50px" stroke="black" stroke-width="2.5" width="50px" x="750" y="450" /><text fill="white" x="770" y="480" /><rect fill="white" height="50px" stroke="black" stroke-width="2.5" width="50px" x="800" y="450" /><text fill="white" x="820" y="480" /><rect fill="#333333" height="50px" stroke="black" stroke-width="2.5" width="50px" x="850" y="450" /><text fill="white" x="870" y="480">a</text><rect fill="white" height="50px" stroke="black" stroke-width="2.5" width="50px" x="900" y="450" /><text fill="white" x="920" y="480" /><rect fill="white" height="50px" stroke="black" stroke-width="2.5" width="50px" x="950" y="450" /><text fill="white" x="970" y="480" /><rect fill="#00cc00" height="50px" stroke="black" stroke-width="2.5" width="50px" x="100" y="500" /><text fill="white" x="120" y="530">b</text><rect fill="#00cc00" height="50px" stroke="black" stroke-width="2.5" width="50px" x="150" y="500" /><text fill="white" x="170" y="530">b</text><rect fill="#00cc00" height="50px" stroke="black" stroke-width="2.5" width="50px" x="200" y="500" /><text fill="white" x="220" y="530">b</text><rect fill="#00cc00" height="50px" stroke="black" stroke-width="2.5" width="50px" x="250" y="500" /><text fill="white" x="270" y="530">b</text><rect fill="#00cc00" height="50px" stroke="black" stroke-width="2.5" width="50px" x="300" y="500" /><text fill="white" x="320" y="530">b</text><rect fill="white" height="50px" stroke="black" stroke-width="2.5" width="50px" x="350" y="500" /><text fill="white" x="370" y="530" /><rect fill="white" height="50px" stroke="black" stroke-width="2.5" width="50px" x="400" y="500" /><text fill="white" x="420" y="530" /><rect fill="white" height="50px" stroke="black" stroke-width="2.5" width="50px" x="450" y="500" /><text fill="white" x="470" y="530" /><rect fill="white" height="50px" stroke="black" stroke-width="2.5" width="50px" x="500" y="500" /><text fill="white" x="520" y="530" /><rect fill="#00cc00" height="50px" stroke="black" stroke-width="2.5" width="50px" x="550" y="500" /><text fill="white" x="570" y="530">b</text><rect fill="#00cc00" height="50px" stroke="black" stroke-width="2.5" width="50px" x="600" y="500" /><text fill="white" x="620" y="530">b</text><rect fill="#00cc00" height="50px" stroke="black" stroke-width="2.5" width="50px" x="650" y="500" /><text fill="white" x="670" y="530">b</text><rect fill="#00cc00" height="50px" stroke="black" stroke-width="2.5" width="50px" x="700" y="500" /><text fill="white" x="720" y="530">b</text><rect fill="#00cc00" height="50px" stroke="black" stroke-width="2.5" width="50px" x="750" y="500" /><text fill="white" x="770" y="530">b</text><rect fill="white" height="50px" stroke="black" stroke-width="2.5" width="50px" x="800" y="500" /><text fill="white" x="820" y="530" /><rect fill="#333333" height="50px" stroke="black" stroke-width="2.5" width="50px" x="850" y="500" /><text fill="white" x="870" y="530">a</text><rect fill="white" height="50px" stroke="black" stroke-width="2.5" width="50px" x="900" y="500" /><text fill="white" x="920" y="530" /><rect fill="white" height="50px" stroke="black" stroke-width="2.5" width="50px" x="950" y="500" /><text fill="white" x="970" y="530" /><rect fill="white" height="50px" stroke="black" stroke-width="2.5" width="50px" x="100" y="550" /><text fill="white" x="120" y="580" /><rect fill="white" height="50px" stroke="black" stroke-width="2.5" width="50px" x="150" y="550" /><text fill="white" x="170" y="580" /><rect fill="#333333" height="50px" stroke="black" stroke-width="2.5" width="50px" x="200" y="550" /><text fill="white" x="220" y="580">a</text><rect fill="white" height="50px" stroke="black" stroke-width="2.5" width="50px" x="250" y="550" /><text fill="white" x="270" y="580" /><rect fill="white" height="50px" stroke="black" stroke-width="2.5" width="50px" x="300" y="550" /><text fill="white" x="320" y="580" /><rect fill="#00cc00" height="50px" stroke="black" stroke-width="2.5" width="50px" x="350" y="550" /><text fill="white" x="370" y="580">b</text><rect fill="white" height="50px" stroke="black" stroke-width="2.5" width="50px" x="400" y="550" /><text fill="white" x="420" y="580" /><rect fill="#00cc00" height="50px" stroke="black" stroke-width="2.5" width="50px" x="450" y="550" /><text fill="white" x="470" y="580">b</text><rect fill="white" height="50px" stroke="black" stroke-width="2.5" width="50px" x="500" y="550" /><text fill="white" x="520" y="580" /><rect fill="#00cc00" height="50px" stroke="black" stroke-width="2.5" width="50px" x="550" y="550" /><text fill="white" x="570" y="580">b</text><rect fill="#00cc00" height="50px" stroke="black" stroke-width="2.5" width="50px" x="600" y="550" /><text fill="white" x="620" y="580">b</text><rect fill="#00cc00" height="50px" stroke="black" stroke-width="2.5" width="50px" x="650" y="550" /><text fill="white" x="670" y="580">b</text><rect fill="#00cc00" height="50px" stroke="black" stroke-width="2.5" width="50px" x="700" y="550" /><text fill="white" x="720" y="580">b</text><rect fill="#00cc00" height="50px" stroke="black" stroke-width="2.5" width="50px" x="750" y="550" /><text fill="white" x="770" y="580">b</text><rect fill="white" height="50px" stroke="black" stroke-width="2.5" width="50px" x="800" y="550" /><text fill="white" x="820" y="580" /><rect fill="white" height="50px" stroke="black" stroke-width="2.5" width="50px" x="850" y="550" /><text fill="white" x="870" y="580" /><rect fill="white" height="50px" stroke="black" stroke-width="2.5" width="50px" x="900" y="550" /><text fill="white" x="920" y="580" /><rect fill="white" height="50px" stroke="black" stroke-width="2.5" width="50px" x="950" y="550" /><text fill="white" x="970" y="580" /><rect fill="#00cc00" height="50px" stroke="black" stroke-width="2.5" width="50px" x="100" y="600" /><text fill="white" x="120" y="630">b</text><rect fill="white" height="50px" stroke="black" stroke-width="2.5" width="50px" x="150" y="600" /><text fill="white" x="170" y="630" /><rect fill="#333333" height="50px" stroke="black" stroke-width="2.5" width="50px" x="200" y="600" /><text fill="white" x="220" y="630">a</text><rect fill="white" height="50px" stroke="black" stroke-width="2.5" width="50px" x="250" y="600" /><text fill="white" x="270" y="630" /><rect fill="white" height="50px" stroke="black" stroke-width="2.5" width="50px" x="300" y="600" /><text fill="white" x="320" y="630" /><rect fill="white" height="50px" stroke="black" stroke-width="2.5" width="50px" x="350" y="600" /><text fill="white" x="370" y="630" /><rect fill="#00cc00" height="50px" stroke="black" stroke-width="2.5" width="50px" x="400" y="600" /><text fill="white" x="420" y="630">b</text><rect fill="#00cc00" height="50px" stroke="black" stroke-width="2.5" width="50px" x="450" y="600" /><text fill="white" x="470" y="630">b</text><rect fill="white" height="50px" stroke="black" stroke-width="2.5" width="50px" x="500" y="600" /><text fill="white" x="520" y="630" /><rect fill="white" height="50px" stroke="black" stroke-width="2.5" width="50px" x="550" y="600" /><text fill="white" x="570" y="630" /><rect fill="white" height="50px" stroke="black" stroke-width="2.5" width="50px" x="600" y="600" /><text fill="white" x="620" y="630" /><rect fill="#333333" height="50px" stroke="black" stroke-width="2.5" width="50px" x="650" y="600" /><text fill="white" x="670" y="630">a</text><rect fill="white" height="50px" stroke="black" stroke-width="2.5" width="50px" x="700" y="600" /><text fill="white" x="720" y="630" /><rect fill="white" height="50px" stroke="black" stroke-width="2.5" width="50px" x="750" y="600" /><text fill="white" x="770" y="630" /><rect fill="white" height="50px" stroke="black" stroke-width="2.5" width="50px" x="800" y="600" /><text fill="white" x="820" y="630" /><rect fill="white" height="50px" stroke="black" stroke-width="2.5" width="50px" x="850" y="600" /><text fill="white" x="870" y="630" /><rect fill="white" height="50px" stroke="black" stroke-width="2.5" width="50px" x="900" y="600" /><text fill="white" x="920" y="630" /><rect fill="#00cc00" height="50px" stroke="black" stroke-width="2.5" width="50px" x="950" y="600" /><text fill="white" x="970" y="630">b</text><rect fill="white" height="50px" stroke="black" stroke-width="2.5" width="50px" x="100" y="650" /><text fill="white" x="120" y="680" /><rect fill="white" height="50px" stroke="black" stroke-width="2.5" width="50px" x="150" y="650" /><text fill="white" x="170" y="680" /><rect fill="white" height="50px" stroke="black" stroke-width="2.5" width="50px" x="200" y="650" /><text fill="white" x="220" y="680" /><rect fill="white" height="50px" stroke="black" stroke-width="2.5" width="50px" x="250" y="650" /><text fill="white" x="270" y="680" /><rect fill="white" height="50px" stroke="black" stroke-width="2.5" width="50px" x="300" y="650" /><text fill="white" x="320" y="680" /><rect fill="#00cc00" height="50px" stroke="black" stroke-width="2.5" width="50px" x="350" y="650" /><text fill="white" x="370" y="680">b</text><rect fill="#00cc00" height="50px" stroke="black" stroke-width="2.5" width="50px" x="400" y="650" /><text fill="white" x="420" y="680">b</text><rect fill="#00cc00" height="50px" stroke="black" stroke-width="2.5" width="50px" x="450" y="650" /><text fill="white" x="470" y="680">b</text><rect fill="#00cc00" height="50px" stroke="black" stroke-width="2.5" width="50px" x="500" y="650" /><text fill="white" x="520" y="680">b</text><rect fill="white" height="50px" stroke="black" stroke-width="2.5" width="50px" x="550" y="650" /><text fill="white" x="570" y="680" /><rect fill="white" height="50px" stroke="black" stroke-width="2.5" width="50px" x="600" y="650" /><text fill="white" x="620" y="680" /><rect fill="#333333" height="50px" stroke="black" stroke-width="2.5" width="50px" x="650" y="650" /><text fill="white" x="670" y="680">a</text><rect fill="white" height="50px" stroke="black" stroke-width="2.5" width="50px" x="700" y="650" /><text fill="white" x="720" y="680" /><rect fill="white" height="50px" stroke="black" stroke-width="2.5" width="50px" x="750" y="650" /><text fill="white" x="770" y="680" /><rect fill="white" height="50px" stroke="black" stroke-width="2.5" width="50px" x="800" y="650" /><text fill="white" x="820" y="680" /><rect fill="#00cc00" height="50px" stroke="black" stroke-width="2.5" width="50px" x="850" y="650" /><text fill="white" x="870" y="680">b</text><rect fill="white" height="50px" stroke="black" stroke-width="2.5" width="50px" x="900" y="650" /><text fill="white" x="920" y="680" /><rect fill="white" height="50px" stroke="black" stroke-width="2.5" width="50px" x="950" y="650" /><text fill="white" x="970" y="680" /></svg>