<?xml version="1.0" encoding="utf-8" ?>
<svg baseProfile="full" height="1000px" version="1.1" width="1000px" xmlns="http://www.w3.org/2000/svg" xmlns:ev="http://www.w3.org/2001/xml-events" xmlns:xlink="http://www.w3.org/1999/xlink"><defs /><polygon fill="white" points="205,100 230,85 255,100 255,130 230,145 205,130" stroke="black" stroke-width="2" /><text fill="white" x="225" y="115" /><polygon fill="white" points="255,100 280,85 305,100 305,130 280,145 255,130" stroke="black" stroke-width="2" /><text fill="white" x="275" y="115" /><polygon fill="white" points="305,100 330,85 355,100 355,130 330,145 305,130" stroke="black" stroke-width="2" /><text fill="white" x="325" y="115" /><polygon fill="#aa0000" points="355,100 380,85 405,100 405,130 380,145 355,130" stroke="black" stroke-width="2" /><text fill="white" x="375" y="115">a</text><polygon fill="white" points="405,100 430,85 455,100 455,130 430,145 405,130" stroke="black" stroke-width="2" /><text fill="white" x="425" y="115" /><polygon fill="white" points="455,100 480,85 505,100 505,130 480,145 455,130" stroke="black" stroke-width="2" /><text fill="white" x="475" y="115" /><polygon fill="white" points="505,100 530,85 555,100 555,130 530,145 505,130" stroke="black" stroke-width="2" /><text fill="white" x="525" y="115" /><polygon fill="white" points="555,100 580,85 605,100 605,130 580,145 555,130" stroke="black" stroke-width="2" /><text fill="white" x="575" y="115" /><polygon fill="white" points="180,145 205,130 230,145 230,175 205,190 180,175" stroke="black" stroke-width="2" /><text fill="white" x="200" y="160" /><polygon fill="white" points="230,145 255,130 280,145 280,175 255,190 230,175" stroke="black" stroke-width="2" /><text fill="white" x="250" y="160" /><polygon fill="white" points="280,145 305,130 330,145 330,175 305,190 280,175" stroke="black" stroke-width="2" /><text fill="white" x="300" y="160" /><polygon fill="#aa0000" points="330,145 355,130 380,145 380,175 355,190 330,175" stroke="black" stroke-width="2" /><text fill="white" x="350" y="160">a</text><polygon fill="#aa0000" points="380,145 405,130 430,145 430,175 405,190 380,175" stroke="black" stroke-width="2" /><text fill="white" x="400" y="160">a</text><polygon fill="white" points="430,145 455,130 480,145 480,175 455,190 430,175" stroke="black" stroke-width="2" /><text fill="white" x="450" y="160" /><polygon fill="white" points="480,145 505,130 530,145 530,175 505,190 480,175" stroke="black" stroke-width="2" /><text fill="white" x="500" y="160" /><polygon fill="white" points="530,145 555,130 580,145 580,175 555,190 530,175" stroke="black" stroke-width="2" /><text fill="white" x="550" y="160" /><polygon fill="white" points="580,145 605,130 630,145 630,175 605,190 580,175" stroke="black" stroke-width="2" /><text fill="white" x="600" y="160" /><polygon fill="white" points="155,190 180,175 205,190 205,220 180,235 155,220" stroke="black" stroke-width="2" /><text fill="white" x="175" y="205" /><polygon fill="white" points="205,190 230,175 255,190 255,220 230,235 205,220" stroke="black" stroke-width="2" /><text fill="white" x="225" y="205" /><polygon fill="white" points="255,190 280,175 305,190 305,220 280,235 255,220" stroke="black" stroke-width="2" /><text fill="white" x="275" y="205" /><polygon fill="#aa0000" points="305,190 330,175 355,190 355,220 330,235 305,220" stroke="black" stroke-width="2" /><text fill="white" x="325" y="205">a</text><polygon fill="white" points="355,190 380,175 405,190 405,220 380,235 355,220" stroke="black" stroke-width="2" /><text fill="white" x="375" y="205" /><polygon fill="#aa0000" points="405,190 430,175 455,190 455,220 430,235 405,220" stroke="black" stroke-width="2" /><text fill="white" x="425" y="205">a</text><polygon fill="white" points="455,190 480,175 505,190 505,220 480,235 455,220" stroke="black" stroke-width="2" /><text fill="white" x="475" y="205" /><polygon fill="white" points="505,190 530,175 555,190 555,220 530,235 505,220" stroke="black" stroke-width="2" /><text fill="white" x="525" y="205" /><polygon fill="white" points="555,190 580,175 605,190 605,220 580,235 555,220" stroke="black" stroke-width="2" /><text fill="white" x="575" y="205" /><polygon fill="white" points="605,190 630,175 655,190 655,220 630,235 605,220" stroke="black" stroke-width="2" /><text fill="white" x="625" y="205" /><polygon fill="white" points="130,235 155,220 180,235 180,265 155,280 130,265" stroke="black" stroke-width="2" /><text fill="white" x="150" y="250" /><polygon fill="white" points="180,235 205,220 230,235 230,265 205,280 180,265" stroke="black" stroke-width="2" /><text fill="white" x="200" y="250" /><polygon fill="white" points="230,235 255,220 280,235 280,265 255,280 230,265" stroke="black" stroke-width="2" /><text fill="white" x="250" y="250" /><polygon fill="#aa0000" points="280,235 305,220 330,235 330,265 305,280 280,265" stroke="black" stroke-width="2" /><text fill="white" x="300" y="250">a</text><polygon fill="#aa0000" points="330,235 355,220 380,235 380,265 355,280 330,265" stroke="black" stroke-width="2" /><text fill="white" x="350" y="250">a</text><polygon fill="#aa0000" points="380,235 405,220 430,235 430,265 405,280 380,265" stroke="black" stroke-width="2" /><text fill="white" x="400" y="250">a</text><polygon fill="#aa0000" points="430,235 455,220 480,235 480,265 455,280 430,265" stroke="black" stroke-width="2" /><text fill="white" x="450" y="250">a</text><polygon fill="white" points="480,235 505,220 530,235 530,265 505,280 480,265" stroke="black" stroke-width="2" /><text fill="white" x="500" y="250" /><polygon fill="white" points="530,235 555,220 580,235 580,265 555,280 530,265" stroke="black" stroke-width="2" /><text fill="white" x="550" y="250" /><polygon fill="white" points="580,235 605,220 630,235 630,265 605,280 580,265" stroke="black" stroke-width="2" /><text fill="white" x="600" y="250" /><polygon fill="white" points="630,235 655,220 680,235 680,265 655,280 630,265" stroke="black" stroke-width="2" /><text fill="white" x="650" y="250" /><polygon fill="white" points="105,280 130,265 155,280 155,310 130,325 105,310" stroke="black" stroke-width="2" /><text fill="white" x="125" y="295" /><polygon fill="white" points="155,280 180,265 205,280 205,310 180,325 155,310" stroke="black" stroke-width="2" /><text fill="white" x="175" y="295" /><polygon fill="white" points="205,280 230,265 255,280 255,310 230,325 205,310" stroke="black" stroke-width="2" /><text fill="white" x="225" y="295" /><polygon fill="#aa0000" points="255,280 280,265 305,280 305,310 280,325 255,310" stroke="black" stroke-width="2" /><text fill="white" x="275" y="295">a</text><polygon fill="white" points="305,280 330,265 355,280 355,310 330,325 305,310" stroke="black" stroke-width="2" /><text fill="white" x="325" y="295" /><polygon fill="#aa0000" points="355,280 380,265 405,280 405,310 380,325 355,310" stroke="black" stroke-width="2" /><text fill="white" x="375" y="295">a</text><polygon fill="white" points="405,280 430,265 455,280 455,310 430,325 405,310" stroke="black" stroke-width="2" /><text fill="white" x="425" y="295" /><polygon fill="#aa0000" points="455,280 480,265 505,280 505,310 480,325 455,310" stroke="black" stroke-width="2" /><text fill="white" x="475" y="295">a</text><polygon fill="white" points="505,280 530,265 555,280 555,310 530,325 505,310" stroke="black" stroke-width="2" /><text fill="white" x="525" y="295" /><polygon fill="white" points="555,280 580,265 605,280 605,310 580,325 555,310" stroke="black" stroke-width="2" /><text fill="white" x="575" y="295" /><polygon fill="white" points="605,280 630,265 655,280 655,310 630,325 605,310" stroke="black" stroke-width="2" /><text fill="white" x="625" y="295" /><polygon fill="white" points="655,280 680,265 705,280 705,310 680,325 655,310" stroke="black" stroke-width="2" /><text fill="white" x="675" y="295" /><polygon fill="white" points="80,325 105,310 130,325 130,355 105,370 80,355" stroke="black" stroke-width="2" /><text fill="white" x="100" y="340" /><polygon fill="white" points="130,325 155,310 180,325 180,355 155,370 130,355" stroke="black" stroke-width="2" /><text fill="white" x="150" y="340" /><polygon fill="white" points="180,325 205,310 230,325 230,355 205,370 180,355" stroke="black" stroke-width="2" /><text fill="white" x="200" y="340" /><polygon fill="#aa0000" points="230,325 255,310 280,325 280,355 255,370 230,355" stroke="black" stroke-width="2" /><text fill="white" x="250" y="340">a</text><polygon fill="#aa0000" points="280,325 305,310 330,325 330,355 305,370 280,355" stroke="black" stroke-width="2" /><text fill="white" x="300" y="340">a</text><polygon fill="#aa0000" points="330,325 355,310 380,325 380,355 355,370 330,355" stroke="black" stroke-width="2" /><text fill="white" x="350" y="340">a</text><polygon fill="#aa0000" points="380,325 405,310 430,325 430,355 405,370 380,355" stroke="black" stroke-width="2" /><text fill="white" x="400" y="340">a</text><polygon fill="#aa0000" points="430,325 455,310 480,325 480,355 455,370 430,355" stroke="black" stroke-width="2" /><text fill="white" x="450" y="340">a</text><polygon fill="#aa0000" points="480,325 505,310 530,325 530,355 505,370 480,355" stroke="black" stroke-width="2" /><text fill="white" x="500" y="340">a</text><polygon fill="white" points="530,325 555,310 580,325 580,355 555,370 530,355" stroke="black" stroke-width="2" /><text fill="white" x="550" y="340" /><polygon fill="white" points="580,325 605,310 630,325 630,355 605,370 580,355" stroke="black" stroke-width="2" /><text fill="white" x="600" y="340" /><polygon fill="white" points="630,325 655,310 680,325 680,355 655,370 630,355" stroke="black" stroke-width="2" /><text fill="white" x="650" y="340" /><polygon fill="white" points="680,325 705,310 730,325 730,355 705,370 680,355" stroke="black" stroke-width="2" /><text fill="white" x="700" y="340" /><polygon fill="white" points="55,370 80,355 105,370 105,400 80,415 55,400" stroke="black" stroke-width="2" /><text fill="white" x="75" y="385" /><polygon fill="white" points="105,370 130,355 155,370 155,400 130,415 105,400" stroke="black" stroke-width="2" /><text fill="white" x="125" y="385" /><polygon fill="white" points="155,370 180,355 205,370 205,400 180,415 155,400" stroke="black" stroke-width="2" /><text fill="white" x="175" y="385" /><polygon fill="#aa0000" points="205,370 230,355 255,370 255,400 230,415 205,400" stroke="black" stroke-width="2" /><text fill="white" x="225" y="385">a</text><polygon fill="#aa0000" points="255,370 280,355 305,370 305,400 280,415 255,400" stroke="black" stroke-width="2" /><text fill="white" x="275" y="385">a</text><polygon fill="white" points="305,370 330,355 355,370 355,400 330,415 305,400" stroke="black" stroke-width="2" /><text fill="white" x="325" y="385" /><polygon fill="white" points="355,370 380,355 405,370 405,400 380,415 355,400" stroke="black" stroke-width="2" /><text fill="white" x="375" y="385" /><polygon fill="white" points="405,370 430,355 455,370 455,400 430,415 405,400" stroke="black" stroke-width="2" /><text fill="white" x="425" y="385" /><polygon fill="#aa0000" points="455,370 480,355 505,370 505,400 480,415 455,400" stroke="black" stroke-width="2" /><text fill="white" x="475" y="385">a</text><polygon fill="#aa0000" points="505,370 530,355 555,370 555,400 530,415 505,400" stroke="black" stroke-width="2" /><text fill="white" x="525" y="385">a</text><polygon fill="white" points="555,370 580,355 605,370 605,400 580,415 555,400" stroke="black" stroke-width="2" /><text fill="white" x="575" y="385" /><polygon fill="white" points="605,370 630,355 655,370 655,400 630,415 605,400" stroke="black" stroke-width="2" /><text fill="white" x="625" y="385" /><polygon fill="white" points="655,370 680,355 705,370 705,400 680,415 655,400" stroke="black" stroke-width="2" /><text fill="white" x="675" y="385" /><polygon fill="white" points="705,370 730,355 755,370 755,400 730,415 705,400" stroke="black" stroke-width="2" /><text fill="white" x="725" y="385" /><polygon fill="white" points="30,415 55,400 80,415 80,445 55,460 30,445" stroke="black" stroke-width="2" /><text fill="white" x="50" y="430" /><polygon fill="white" points="80,415 105,400 130,415 130,445 105,460 80,445" stroke="black" stroke-width="2" /><text fill="white" x="100" y="430" /><polygon fill="white" points="130,415 155,400 180,415 180,445 155,460 130,445" stroke="black" stroke-width="2" /><text fill="white" x="150" y="430" /><polygon fill="#aa0000" points="180,415 205,400 230,415 230,445 205,460 180,445" stroke="black" stroke-width="2" /><text fill="white" x="200" y="430">a</text><polygon fill="white" points="230,415 255,400 280,415 280,445 255,460 230,445" stroke="black" stroke-width="2" /><text fill="white" x="250" y="430" /><polygon fill="#aa0000" points="280,415 305,400 330,415 330,445 305,460 280,445" stroke="black" stroke-width="2" /><text fill="white" x="300" y="430">a</text><polygon fill="white" points="330,415 355,400 380,415 380,445 355,460 330,445" stroke="black" stroke-width="2" /><text fill="white" x="350" y="430" /><polygon fill="white" points="380,415 405,400 430,415 430,445 405,460 380,445" stroke="black" stroke-width="2" /><text fill="white" x="400" y="430" /><polygon fill="#aa0000" points="430,415 455,400 480,415 480,445 455,460 430,445" stroke="black" stroke-width="2" /><text fill="white" x="450" y="430">a</text><polygon fill="white" points="480,415 505,400 530,415 530,445 505,460 480,445" stroke="black" stroke-width="2" /><text fill="white" x="500" y="430" /><polygon fill="#aa0000" points="530,415 555,400 580,415 580,445 555,460 530,445" stroke="black" stroke-width="2" /><text fill="white" x="550" y="430">a</text><polygon fill="white" points="580,415 605,400 630,415 630,445 605,460 580,445" stroke="black" stroke-width="2" /><text fill="white" x="600" y="430" /><polygon fill="white" points="630,415 655,400 680,415 680,445 655,460 630,445" stroke="black" stroke-width="2" /><text fill="white" x="650" y="430" /><polygon fill="white" points="680,415 705,400 730,415 730,445 705,460 680,445" stroke="black" stroke-width="2" /><text fill="white" x="700" y="430" /><polygon fill="white" points="730,415 755,400 780,415 780,445 755,460 730,445" stroke="black" stroke-width="2" /><text fill="white" x="750" y="430" /><polygon fill="white" points="55,460 80,445 105,460 105,490 80,505 55,490" stroke="black" stroke-width="2" /><text fill="white" x="75" y="475" /><polygon fill="white" points="105,460 130,445 155,460 155,490 130,505 105,490" stroke="black" stroke-width="2" /><text fill="white" x="125" y="475" /><polygon fill="#aa0000" points="155,460 180,445 205,460 205,490 180,505 155,490" stroke="black" stroke-width="2" /><text fill="white" x="175" y="475">a</text><polygon fill="#aa0000" points="205,460 230,445 255,460 255,490 230,505 205,490" stroke="black" stroke-width="2" /><text fill="white" x="225" y="475">a</text><polygon fill="#aa0000" points="255,460 280,445 305,460 305,490 280,505 255,490" stroke="black" stroke-width="2" /><text fill="white" x="275" y="475">a</text><polygon fill="#aa0000" points="305,460 330,445 355,460 355,490 330,505 305,490" stroke="black" stroke-width="2" /><text fill="white" x="325" y="475">a</text><polygon fill="white" points="355,460 380,445 405,460 405,490 380,505 355,490" stroke="black" stroke-width="2" /><text fill="white" x="375" y="475" /><polygon fill="#aa0000" points="405,460 430,445 455,460 455,490 430,505 405,490" stroke="black" stroke-width="2" /><text fill="white" x="425" y="475">a</text><polygon fill="#aa0000" points="455,460 480,445 505,460 505,490 480,505 455,490" stroke="black" stroke-width="2" /><text fill="white" x="475" y="475">a</text><polygon fill="#aa0000" points="505,460 530,445 555,460 555,490 530,505 505,490" stroke="black" stroke-width="2" /><text fill="white" x="525" y="475">a</text><polygon fill="#aa0000" points="555,460 580,445 605,460 605,490 580,505 555,490" stroke="black" stroke-width="2" /><text fill="white" x="575" y="475">a</text><polygon fill="white" points="605,460 630,445 655,460 655,490 630,505 605,490" stroke="black" stroke-width="2" /><text fill="white" x="625" y="475" /><polygon fill="white" points="655,460 680,445 705,460 705,490 680,505 655,490" stroke="black" stroke-width="2" /><text fill="white" x="675" y="475" /><polygon fill="white" points="705,460 730,445 755,460 755,490 730,505 705,490" stroke="black" stroke-width="2" /><text fill="white" x="725" y="475" /><polygon fill="white" points="80,505 105,490 130,505 130,535 105,550 80,535" stroke="black" stroke-width="2" /><text fill="white" x="100" y="520" /><polygon fill="#aa0000" points="130,505 155,490 180,505 180,535 155,550 130,535" stroke="black" stroke-width="2" /><text fill="white" x="150" y="520">a</text><polygon fill="white" points="180,505 205,490 230,505 230,535 205,550 180,535" stroke="black" stroke-width="2" /><text fill="white" x="200" y="520" /><polygon fill="#aa0000" points="230,505 255,490 280,505 280,535 255,550 230,535" stroke="black" stroke-width="2" /><text fill="white" x="250" y="520">a</text><polygon fill="white" points="280,505 305,490 330,505 330,535 305,550 280,535" stroke="black" stroke-width="2" /><text fill="white" x="300" y="520" /><polygon fill="#aa0000" points="330,505 355,490 380,505 380,535 355,550 330,535" stroke="black" stroke-width="2" /><text fill="white" x="350" y="520">a</text><polygon fill="#aa0000" points="380,505 405,490 430,505 430,535 405,550 380,535" stroke="black" stroke-width="2" /><text fill="white" x="400" y="520">a</text><polygon fill="white" points="430,505 455,490 480,505 480,535 455,550 430,535" stroke="black" stroke-width="2" /><text fill="white" x="450" y="520" /><polygon fill="#aa0000" points="480,505 505,490 530,505 530,535 505,550 480,535" stroke="black" stroke-width="2" /><text fill="white" x="500" y="520">a</text><polygon fill="white" points="530,505 555,490 580,505 580,535 555,550 530,535" stroke="black" stroke-width="2" /><text fill="white" x="550" y="520" /><polygon fill="#aa0000" points="580,505 605,490 630,505 630,535 605,550 580,535" stroke="black" stroke-width="2" /><text fill="white" x="600" y="520">a</text><polygon fill="white" points="630,505 655,490 680,505 680,535 655,550 630,535" stroke="black" stroke-width="2" /><text fill="white" x="650" y="520" /><polygon fill="white" points="680,505 705,490 730,505 730,535 705,550 680,535" stroke="black" stroke-width="2" /><text fill="white" x="700" y="520" /><polygon fill="#aa0000" points="105,550 130,535 155,550 155,580 130,595 105,580" stroke="black" stroke-width="2" /><text fill="white" x="125" y="565">a</text><polygon fill="#aa0000" points="155,550 180,535 205,550 205,580 180,595 155,580" stroke="black" stroke-width="2" /><text fill="white" x="175" y="565">a</text><polygon fill="#aa0000" points="205,550 230,535 255,550 255,580 230,595 205,580" stroke="black" stroke-width="2" /><text fill="white" x="225" y="565">a</text><polygon fill="#aa0000" points="255,550 280,535 305,550 305,580 280,595 255,580" stroke="black" stroke-width="2" /><text fill="white" x="275" y="565">a</text><polygon fill="#aa0000" points="305,550 330,535 355,550 355,580 330,595 305,580" stroke="black" stroke-width="2" /><text fill="white" x="325" y="565">a</text><polygon fill="#aa0000" points="355,550 380,535 405,550 405,580 380,595 355,580" stroke="black" stroke-width="2" /><text fill="white" x="375" y="565">a</text><polygon fill="#aa0000" points="405,550 430,535 455,550 455,580 430,595 405,580" stroke="black" stroke-width="2" /><text fill="white" x="425" y="565">a</text><polygon fill="#aa0000" points="455,550 480,535 505,550 505,580 480,595 455,580" stroke="black" stroke-width="2" /><text fill="white" x="475" y="565">a</text><polygon fill="#aa0000" points="505,550 530,535 555,550 555,580 530,595 505,580" stroke="black" stroke-width="2" /><text fill="white" x="525" y="565">a</text><polygon fill="#aa0000" points="555,550 580,535 605,550 605,580 580,595 555,580" stroke="black" stroke-width="2" /><text fill="white" x="575" y="565">a</text><polygon fill="#aa0000" points="605,550 630,535 655,550 655,580 630,595 605,580" stroke="black" stroke-width="2" /><text fill="white" x="625" y="565">a</text><polygon fill="white" points="655,550 680,535 705,550 705,580 680,595 655,580" stroke="black" stroke-width="2" /><text fill="white" x="675" y="565" /><polygon fill="white" points="130,595 155,580 180,595 180,625 155,640 130,625" stroke="black" stroke-width="2" /><text fill="white" x="150" y="610" /><polygon fill="white" points="180,595 205,580 230,595 230,625 205,640 180,625" stroke="black" stroke-width="2" /><text fill="white" x="200" y="610" /><polygon fill="white" points="230,595 255,580 280,595 280,625 255,640 230,625" stroke="black" stroke-width="2" /><text fill="white" x="250" y="610" /><polygon fill="white" points="280,595 305,580 330,595 330,625 305,640 280,625" stroke="black" stroke-width="2" /><text fill="white" x="300" y="610" /><polygon fill="white" points="330,595 355,580 380,595 380,625 355,640 330,625" stroke="black" stroke-width="2" /><text fill="white" x="350" y="610" /><polygon fill="white" points="380,595 405,580 430,595 430,625 405,640 380,625" stroke="black" stroke-width="2" /><text fill="white" x="400" y="610" /><polygon fill="white" points="430,595 455,580 480,595 480,625 455,640 430,625" stroke="black" stroke-width="2" /><text fill="white" x="450" y="610" /><polygon fill="white" points="480,595 505,580 530,595 530,625 505,640 480,625" stroke="black" stroke-width="2" /><text fill="white" x="500" y="610" /><polygon fill="white" points="530,595 555,580 580,595 580,625 555,640 530,625" stroke="black" stroke-width="2" /><text fill="white" x="550" y="610" /><polygon fill="white" points="580,595 605,580 630,595 630,625 605,640 580,625" stroke="black" stroke-width="2" /><text fill="white" x="600" y="610" /><polygon fill="white" points="630,595 655,580 680,595 680,625 655,640 630,625" stroke="black" stroke-width="2" /><text fill="white" x="650" y="610" /><polygon fill="white" points="155,640 180,625 205,640 205,670 180,685 155,670" stroke="black" stroke-width="2" /><text fill="white" x="175" y="655" /><polygon fill="white" points="205,640 230,625 255,640 255,670 230,685 205,670" stroke="black" stroke-width="2" /><text fill="white" x="225" y="655" /><polygon fill="white" points="255,640 280,625 305,640 305,670 280,685 255,670" stroke="black" stroke-width="2" /><text fill="white" x="275" y="655" /><polygon fill="white" points="305,640 330,625 355,640 355,670 330,685 305,670" stroke="black" stroke-width="2" /><text fill="white" x="325" y="655" /><polygon fill="white" points="355,640 380,625 405,640 405,670 380,685 355,670" stroke="black" stroke-width="2" /><text fill="white" x="375" y="655" /><polygon fill="white" points="405,640 430,625 455,640 455,670 430,685 405,670" stroke="black" stroke-width="2" /><text fill="white" x="425" y="655" /><polygon fill="white" points="455,640 480,625 505,640 505,670 480,685 455,670" stroke="black" stroke-width="2" /><text fill="white" x="475" y="655" /><polygon fill="white" points="505,640 530,625 555,640 555,670 530,685 505,670" stroke="black" stroke-width="2" /><text fill="white" x="525" y="655" /><polygon fill="white" points="555,640 580,625 605,640 605,670 580,685 555,670" stroke="black" stroke-width="2" /><text fill="white" x="575" y="655" /><polygon fill="white" points="605,640 630,625 655,640 655,670 630,685 605,670" stroke="black" stroke-width="2" /><text fill="white" x="625" y="655" /><polygon fill="white" points="180,685 205,670 230,685 230,715 205,730 180,715" stroke="black" stroke-width="2" /><text fill="white" x="200" y="700" /><polygon fill="white" points="230,685 255,670 280,685 280,715 255,730 230,715" stroke="black" stroke-width="2" /><text fill="white" x="250" y="700" /><polygon fill="white" points="280,685 305,670 330,685 330,715 305,730 280,715" stroke="black" stroke-width="2" /><text fill="white" x="300" y="700" /><polygon fill="white" points="330,685 355,670 380,685 380,715 355,730 330,715" stroke="black" stroke-width="2" /><text fill="white" x="350" y="700" /><polygon fill="white" points="380,685 405,670 430,685 430,715 405,730 380,715" stroke="black" stroke-width="2" /><text fill="white" x="400" y="700" /><polygon fill="white" points="430,685 455,670 480,685 480,715 455,730 430,715" stroke="black" stroke-width="2" /><text fill="white" x="450" y="700" /><polygon fill="white" points="480,685 505,670 530,685 530,715 505,730 480,715" stroke="black" stroke-width="2" /><text fill="white" x="500" y="700" /><polygon fill="white" points="530,685 555,670 580,685 580,715 555,730 530,715" stroke="black" stroke-width="2" /><text fill="white" x="550" y="700" /><polygon fill="white" points="580,685 605,670 630,685 630,715 605,730 580,715" stroke="black" stroke-width="2" /><text fill="white" x="600" y="700" /><polygon fill="white" points="205,730 230,715 255,730 255,760 230,775 205,760" stroke="black" stroke-width="2" /><text fill="white" x="225" y="745" /><polygon fill="white" points="255,730 280,715 305,730 305,760 280,775 255,760" stroke="black" stroke-width="2" /><text fill="white" x="275" y="745" /><polygon fill="white" points="305,730 330,715 355,730 355,760 330,775 305,760" stroke="black" stroke-width="2" /><text fill="white" x="325" y="745" /><polygon fill="white" points="355,730 380,715 405,730 405,760 380,775 355,760" stroke="black" stroke-width="2" /><text fill="white" x="375" y="745" /><polygon fill="white" points="405,730 430,715 455,730 455,760 430,775 405,760" stroke="black" stroke-width="2" /><text fill="white" x="425" y="745" /><polygon fill="white" points="455,730 480,715 505,730 505,760 480,775 455,760" stroke="black" stroke-width="2" /><text fill="white" x="475" y="745" /><polygon fill="white" points="505,730 530,715 555,730 555,760 530,775 505,760" stroke="black" stroke-width="2" /><text fill="white" x="525" y="745" /><polygon fill="white" points="555,730 580,715 605,730 605,760 580,775 555,760" stroke="black" stroke-width="2" /><text fill="white" x="575" y="745" /></svg>